<svg width="40" height="40" viewBox="0 0 40 40" fill="none" xmlns="http://www.w3.org/2000/svg">
<g clip-path="url(#clip0_201_90)">
<path fill-rule="evenodd" clip-rule="evenodd" d="M35.02 26.96C34.22 26.52 30.27 24.39 29.53 24.09C28.79 23.79 28.25 23.63 27.67 24.43C27.1 25.23 25.46 27.01 24.96 27.54C24.46 28.07 23.98 28.12 23.18 27.68C22.38 27.24 19.78 26.28 16.76 23.38C14.41 21.12 12.87 18.38 12.42 17.55C11.97 16.71 12.42 16.29 12.84 15.9C13.22 15.55 13.69 14.97 14.12 14.51C14.54 14.05 14.69 13.71 14.99 13.18C15.28 12.65 15.16 12.16 14.97 11.75C14.78 11.33 13.3 7.25 12.68 5.59C12.07 3.9 11.38 4.15 10.91 4.13C10.43 4.11 9.88999 4.02 9.34999 4C8.79999 3.98 7.90999 4.15 7.12999 4.94C6.33999 5.73 4.15999 7.62999 3.99999 11.66C3.84999 15.68 6.62999 19.68 7.01999 20.24C7.40999 20.8 12.34 29.52 20.52 33.11C28.71 36.7 28.76 35.6 30.26 35.52C31.76 35.44 35.17 33.72 35.93 31.84C36.68 29.96 36.74 28.32 36.55 27.97C36.36 27.62 35.82 27.4 35.02 26.96Z" fill="white"/>
</g>
<defs>
<clipPath id="clip0_201_90">
<rect width="32.65" height="31.74" fill="white" transform="translate(4 4)"/>
</clipPath>
</defs>
</svg>
