<svg width="67" height="86" viewBox="0 0 67 86" fill="none" xmlns="http://www.w3.org/2000/svg">
<path d="M47.14 60.29C47.14 61.13 47.3 61.78 47.58 62.24C47.88 62.68 48.39 63.01 49.14 63.24V63.52H41.21V63.24C41.95 63.01 42.47 62.68 42.77 62.24C43.07 61.78 43.23 61.12 43.23 60.29V47.46C42.93 47 42.63 46.58 42.32 46.18C41.53 45.18 40.67 44.41 39.74 43.88C38.46 43.14 37.14 42.65 35.79 42.42C34.49 42.21 33.14 42.09 31.81 42.09H30.88C29.74 42.09 28.67 42.04 27.63 41.93C26.35 41.81 25.14 41.53 24 41.05C23.35 40.77 22.74 40.35 22.19 39.82L21.03 39.84V41L17.12 39.81V27.7C17.12 26.84 16.98 26.21 16.68 25.75C16.38 25.31 15.84 24.98 15.1 24.77V24.47H23.03V24.77C22.29 24.98 21.77 25.3 21.47 25.75C21.17 26.21 21.03 26.84 21.03 27.7V36.98C21.24 37.31 21.43 37.58 21.63 37.86C22.09 38.46 22.56 38.95 23.07 39.35C23.23 39.49 23.42 39.63 23.58 39.75H23.6C24.16 40.15 24.72 40.42 25.32 40.63C26.09 40.91 26.9 41.09 27.71 41.16C28.52 41.23 29.38 41.28 30.27 41.28H33.46C34.53 41.28 35.62 41.4 36.69 41.68C37.78 41.94 38.85 42.38 39.97 43.01C41.06 43.64 42.16 44.57 43.22 45.8V27.71C43.22 26.85 43.06 26.22 42.76 25.76C42.46 25.32 41.95 24.99 41.2 24.78V24.48H49.13V24.78C48.39 24.99 47.87 25.31 47.57 25.76C47.29 26.22 47.13 26.85 47.13 27.71V60.3L47.14 60.29Z" fill="url(#paint0_linear_1_62)"/>
<path d="M47.14 27.7C47.14 26.84 47.3 26.21 47.58 25.75C47.88 25.31 48.39 24.98 49.14 24.77V24.47H41.2101V24.77C41.9501 24.98 42.4701 25.3 42.7701 25.75C43.07 26.21 43.23 26.84 43.23 27.7V45.79C42.16 44.56 41.07 43.63 39.98 43C38.86 42.37 37.79 41.93 36.7 41.67C35.63 41.39 34.54 41.27 33.47 41.27H30.28C29.4 41.27 28.54 41.22 27.72 41.15C26.91 41.08 26.09 40.89 25.33 40.62C24.73 40.41 24.17 40.13 23.61 39.74H23.59C23.43 39.62 23.24 39.48 23.08 39.34C22.57 38.94 22.1 38.46 21.64 37.85C21.43 37.57 21.24 37.29 21.04 36.97V27.69C21.04 26.83 21.18 26.2 21.48 25.74C21.78 25.3 22.29 24.97 23.04 24.76V24.46H15.11V24.76C15.85 24.97 16.39 25.29 16.69 25.74C16.99 26.2 17.13 26.83 17.13 27.69V60.28C17.13 61.12 16.99 61.77 16.69 62.23C16.39 62.67 15.85 63 15.11 63.23V63.51H23.04V63.23C22.3 63 21.78 62.67 21.48 62.23C21.18 61.77 21.04 61.11 21.04 60.28V39.82L22.2 39.8C22.76 40.33 23.36 40.75 24.01 41.03C25.15 41.52 26.36 41.8 27.64 41.91C28.69 42.03 29.76 42.07 30.89 42.07H31.8201C33.1501 42.07 34.49 42.19 35.8 42.4C37.15 42.63 38.47 43.12 39.75 43.86C40.68 44.39 41.54 45.16 42.33 46.16C42.63 46.56 42.9301 46.97 43.2401 47.44V60.27C43.2401 61.11 43.08 61.76 42.78 62.22C42.48 62.66 41.97 62.99 41.22 63.22V63.5H49.15V63.22C48.41 62.99 47.89 62.66 47.59 62.22C47.31 61.76 47.15 61.1 47.15 60.27V27.7H47.14Z" fill="url(#paint1_linear_1_62)"/>
<path d="M36.71 6.06L36.5 12.4C36.14 11.19 35.41 9.91 34.33 8.57C33.24 7.22 31.93 5.97 30.39 4.82C28.85 3.66 27.14 2.7 25.25 1.94C23.37 1.18 21.44 0.790001 19.44 0.790001C17.44 0.790001 15.39 1.24 13.55 2.12C11.7 3 10.08 4.24 8.70003 5.81C7.31003 7.39 6.21003 9.24 5.39003 11.37C4.58003 13.5 4.17003 15.83 4.17003 18.33C4.17003 21.25 4.71003 23.83 5.79003 26.06C6.88003 28.29 8.29003 30.18 10.05 31.72C11.35 32.86 12.78 33.79 14.36 34.51V37.5C13.71 37.32 13.09 37.13 12.47 36.91C9.96003 35.97 7.78003 34.64 5.95003 32.94C4.12003 31.23 2.70003 29.21 1.68003 26.87C0.670031 24.53 0.160034 21.95 0.160034 19.14C0.160034 16.33 0.68003 13.76 1.71003 11.41C2.74003 9.07 4.17003 7.04 6.00003 5.34C7.83003 3.63 10.03 2.31 12.58 1.37C15.14 0.430001 17.96 -0.0299988 21.04 -0.0299988C24.12 -0.0299988 27 0.460001 29.66 1.46C32.32 2.46 34.67 3.98 36.7 6.03L36.71 6.06Z" fill="url(#paint2_linear_1_62)"/>
<path d="M35.06 26.58C34.5 28.54 33.67 30.25 32.55 31.7C31.43 33.15 30.11 34.36 28.59 35.35C27.1 36.3 25.43 37.05 23.6 37.53V35.93C23.81 35.88 24.03 35.84 24.24 35.78C25.72 35.41 27.08 34.81 28.31 33.98C29.96 32.87 31.08 31.61 31.69 30.84C32.23 30.16 32.88 29.2 33.46 27.95C33.99 27.49 34.53 27.04 35.06 26.58Z" fill="url(#paint3_linear_1_62)"/>
<path d="M61.65 53.34L61.44 59.68C61.07 58.47 60.35 57.19 59.27 55.84C58.18 54.5 56.87 53.25 55.33 52.1C53.81 50.95 52.1 50 50.25 49.24V47.61C51.76 47.85 53.23 48.24 54.62 48.77C57.28 49.77 59.63 51.29 61.66 53.34H61.65Z" fill="url(#paint4_linear_1_62)"/>
<path d="M66.24 74.21C65.68 76.17 64.85 77.88 63.73 79.33C62.61 80.78 61.29 81.99 59.77 82.97C58.26 83.95 56.57 84.69 54.71 85.19C52.84 85.68 50.85 85.93 48.73 85.93C45.7 85.93 42.92 85.47 40.41 84.53C37.9 83.59 35.72 82.27 33.89 80.56C32.06 78.85 30.64 76.83 29.62 74.49C29.35 73.87 29.11 73.21 28.92 72.55C28.37 70.75 28.1 68.81 28.1 66.77C28.1 63.96 28.62 61.39 29.65 59.04C30.01 58.24 30.41 57.46 30.85 56.74C31.19 56.16 31.58 55.61 31.99 55.08C32.58 54.33 33.22 53.62 33.92 52.96C35.75 51.25 37.95 49.93 40.5 48.99C40.58 48.96 40.65 48.94 40.74 48.91V50.1C39.19 50.94 37.82 52.05 36.61 53.42C35.22 55 34.13 56.85 33.31 58.98C32.5 61.11 32.09 63.44 32.09 65.95C32.09 68.46 32.47 70.58 33.23 72.54C33.37 72.93 33.53 73.31 33.71 73.67C34.8 75.9 36.21 77.79 37.97 79.33C39.72 80.87 41.72 82.02 43.98 82.81C46.24 83.59 48.52 83.97 50.82 83.97C52.4 83.97 53.92 83.78 55.39 83.41C56.87 83.03 58.22 82.44 59.46 81.61C59.89 81.32 61.4 80.31 62.84 78.47C63.74 77.33 64.32 76.24 64.69 75.42C65.2 75.02 65.7 74.61 66.21 74.21H66.24Z" fill="url(#paint5_linear_1_62)"/>
<defs>
<linearGradient id="paint0_linear_1_62" x1="15.11" y1="43.99" x2="49.14" y2="43.99" gradientUnits="userSpaceOnUse">
<stop stop-color="#AF7A21"/>
<stop offset="0.29" stop-color="#D0AD63"/>
<stop offset="0.46" stop-color="#DCC07B"/>
<stop offset="0.58" stop-color="#F7E7A9"/>
<stop offset="0.73" stop-color="#D8B972"/>
<stop offset="0.84" stop-color="#BC8C3C"/>
<stop offset="1" stop-color="#B1751F"/>
</linearGradient>
<linearGradient id="paint1_linear_1_62" x1="15.11" y1="43.99" x2="49.14" y2="43.99" gradientUnits="userSpaceOnUse">
<stop stop-color="#AF7A21"/>
<stop offset="0.29" stop-color="#D0AD63"/>
<stop offset="0.46" stop-color="#DCC07B"/>
<stop offset="0.58" stop-color="#F7E7A9"/>
<stop offset="0.73" stop-color="#D8B972"/>
<stop offset="0.84" stop-color="#BC8C3C"/>
<stop offset="1" stop-color="#B1751F"/>
</linearGradient>
<linearGradient id="paint2_linear_1_62" x1="0.160034" y1="18.76" x2="36.71" y2="18.76" gradientUnits="userSpaceOnUse">
<stop stop-color="#AF7A21"/>
<stop offset="0.29" stop-color="#D0AD63"/>
<stop offset="0.46" stop-color="#DCC07B"/>
<stop offset="0.58" stop-color="#F7E7A9"/>
<stop offset="0.73" stop-color="#D8B972"/>
<stop offset="0.84" stop-color="#BC8C3C"/>
<stop offset="1" stop-color="#B1751F"/>
</linearGradient>
<linearGradient id="paint3_linear_1_62" x1="23.59" y1="32.05" x2="35.06" y2="32.05" gradientUnits="userSpaceOnUse">
<stop stop-color="#AF7A21"/>
<stop offset="0.29" stop-color="#D0AD63"/>
<stop offset="0.46" stop-color="#DCC07B"/>
<stop offset="0.58" stop-color="#F7E7A9"/>
<stop offset="0.73" stop-color="#D8B972"/>
<stop offset="0.84" stop-color="#BC8C3C"/>
<stop offset="1" stop-color="#B1751F"/>
</linearGradient>
<linearGradient id="paint4_linear_1_62" x1="50.24" y1="53.65" x2="61.65" y2="53.65" gradientUnits="userSpaceOnUse">
<stop stop-color="#AF7A21"/>
<stop offset="0.29" stop-color="#D0AD63"/>
<stop offset="0.46" stop-color="#DCC07B"/>
<stop offset="0.58" stop-color="#F7E7A9"/>
<stop offset="0.73" stop-color="#D8B972"/>
<stop offset="0.84" stop-color="#BC8C3C"/>
<stop offset="1" stop-color="#B1751F"/>
</linearGradient>
<linearGradient id="paint5_linear_1_62" x1="28.1" y1="67.41" x2="66.24" y2="67.41" gradientUnits="userSpaceOnUse">
<stop stop-color="#AF7A21"/>
<stop offset="0.29" stop-color="#D0AD63"/>
<stop offset="0.46" stop-color="#DCC07B"/>
<stop offset="0.58" stop-color="#F7E7A9"/>
<stop offset="0.73" stop-color="#D8B972"/>
<stop offset="0.84" stop-color="#BC8C3C"/>
<stop offset="1" stop-color="#B1751F"/>
</linearGradient>
</defs>
</svg>
