<svg width="66" height="66" viewBox="0 0 66 66" fill="none" xmlns="http://www.w3.org/2000/svg">
<path d="M30.4564 64.6684C11.7266 37.5157 8.25 34.729 8.25 24.75C8.25 11.0809 19.3309 0 33 0C46.6691 0 57.75 11.0809 57.75 24.75C57.75 34.729 54.2734 37.5157 35.5436 64.6684C34.3145 66.444 31.6854 66.4438 30.4564 64.6684ZM33 35.0625C38.6955 35.0625 43.3125 30.4455 43.3125 24.75C43.3125 19.0545 38.6955 14.4375 33 14.4375C27.3045 14.4375 22.6875 19.0545 22.6875 24.75C22.6875 30.4455 27.3045 35.0625 33 35.0625Z" fill="white"/>
</svg>
