<svg width="283" height="144" viewBox="0 0 283 144" fill="none" xmlns="http://www.w3.org/2000/svg">
<g clip-path="url(#clip0_1_51)">
<path d="M4.45001 121.16C4.45001 124.4 5.05001 127.26 6.26001 129.74C7.46001 132.23 9.04001 134.32 10.99 136.03C12.94 137.74 15.16 139.02 17.67 139.89C20.17 140.76 22.71 141.19 25.27 141.19C27.02 141.19 28.72 140.98 30.36 140.57C32 140.16 33.51 139.49 34.88 138.58C36.26 137.67 37.51 136.5 38.64 135.08C39.77 133.66 40.69 131.95 41.4 129.95L42.38 130.35C41.76 132.53 40.83 134.42 39.59 136.03C38.35 137.64 36.88 138.99 35.2 140.08C33.52 141.17 31.64 141.99 29.56 142.54C27.49 143.09 25.28 143.36 22.93 143.36C19.56 143.36 16.47 142.84 13.68 141.8C10.89 140.76 8.47001 139.29 6.44001 137.39C4.41001 135.49 2.83001 133.24 1.70001 130.64C0.57001 128.04 0.0100098 125.18 0.0100098 122.06C0.0100098 118.94 0.58001 116.08 1.73001 113.48C2.88001 110.88 4.47001 108.63 6.50001 106.73C8.53001 104.83 10.97 103.36 13.81 102.32C16.65 101.28 19.79 100.76 23.22 100.76C26.65 100.76 29.84 101.31 32.8 102.42C35.76 103.53 38.36 105.22 40.62 107.49L40.39 114.54C39.99 113.19 39.18 111.77 37.98 110.28C36.78 108.79 35.32 107.4 33.6 106.12C31.88 104.84 29.98 103.77 27.89 102.93C25.8 102.08 23.65 101.66 21.43 101.66C19.21 101.66 16.94 102.15 14.88 103.13C12.83 104.11 11.03 105.48 9.49001 107.23C7.95001 108.98 6.73001 111.05 5.82001 113.41C4.91001 115.78 4.46001 118.36 4.46001 121.16H4.45001Z" fill="url(#paint0_linear_1_51)"/>
<path d="M51.59 130.46V139.33C51.59 140.24 51.75 140.92 52.07 141.4C52.39 141.87 52.94 142.23 53.73 142.48V142.77H45.32V142.48C46.11 142.23 46.66 141.87 46.98 141.4C47.3 140.93 47.46 140.24 47.46 139.33V104.76C47.46 103.85 47.3 103.17 46.98 102.69C46.66 102.22 46.11 101.87 45.32 101.63V101.31H51.59V124.66C51.82 123.72 52.14 122.79 52.54 121.89C53.37 120.06 54.43 118.45 55.73 117.06C57.03 115.67 58.52 114.58 60.2 113.78C61.88 112.98 63.62 112.58 65.43 112.58C66.37 112.58 67.32 112.71 68.28 112.96C69.23 113.21 70.1 113.64 70.9 114.26C71.69 114.88 72.33 115.7 72.82 116.75C73.31 117.79 73.56 119.1 73.56 120.68V139.32C73.56 140.23 73.72 140.91 74.04 141.39C74.36 141.86 74.91 142.22 75.7 142.47V142.76H67.29V142.47C68.08 142.22 68.63 141.86 68.95 141.39C69.27 140.92 69.43 140.23 69.43 139.32V120.45C69.43 117.93 68.96 116.18 68.03 115.2C67.1 114.23 65.91 113.74 64.46 113.74C62.88 113.74 61.32 114.21 59.78 115.14C58.24 116.07 56.86 117.32 55.63 118.88C54.41 120.44 53.43 122.22 52.7 124.23C51.97 126.23 51.6 128.3 51.6 130.44L51.59 130.46Z" fill="url(#paint1_linear_1_51)"/>
<path d="M78.67 127.98C78.67 125.73 79.08 123.65 79.91 121.77C80.74 119.88 81.91 118.25 83.44 116.89C84.96 115.52 86.77 114.47 88.86 113.73C90.95 112.99 93.24 112.62 95.72 112.62C98.2 112.62 100.48 112.99 102.56 113.73C104.63 114.47 106.43 115.53 107.95 116.89C109.47 118.26 110.65 119.89 111.48 121.77C112.31 123.66 112.72 125.73 112.72 127.98C112.72 130.23 112.31 132.3 111.48 134.16C110.65 136.03 109.48 137.65 107.95 139.02C106.43 140.39 104.63 141.45 102.56 142.21C100.49 142.97 98.21 143.35 95.72 143.35C93.23 143.35 90.95 142.97 88.86 142.21C86.77 141.45 84.96 140.38 83.44 139.02C81.92 137.65 80.74 136.03 79.91 134.16C79.08 132.29 78.67 130.23 78.67 127.98ZM83.12 127.98C83.12 130.12 83.42 132.08 84.03 133.88C84.64 135.68 85.5 137.2 86.63 138.46C87.76 139.72 89.09 140.71 90.63 141.42C92.17 142.13 93.87 142.49 95.72 142.49C97.57 142.49 99.26 142.13 100.78 141.42C102.3 140.71 103.63 139.72 104.75 138.46C105.88 137.2 106.74 135.67 107.35 133.88C107.96 132.09 108.26 130.12 108.26 127.98C108.26 125.84 107.96 123.89 107.35 122.11C106.74 120.34 105.88 118.81 104.75 117.53C103.62 116.25 102.3 115.25 100.78 114.54C99.26 113.83 97.57 113.47 95.72 113.47C93.87 113.47 92.17 113.83 90.63 114.54C89.09 115.25 87.75 116.25 86.63 117.53C85.5 118.81 84.64 120.34 84.03 122.11C83.42 123.88 83.12 125.84 83.12 127.98Z" fill="url(#paint2_linear_1_51)"/>
<path d="M132.02 114.08C130.25 114.08 128.59 114.42 127.05 115.11C125.51 115.79 124.18 116.73 123.08 117.91C121.97 119.09 121.11 120.51 120.48 122.14C119.85 123.78 119.54 125.55 119.54 127.46C119.54 129.66 119.95 131.61 120.78 133.33C121.61 135.05 122.69 136.49 124.03 137.65C125.37 138.82 126.87 139.7 128.52 140.29C130.18 140.89 131.85 141.19 133.55 141.19C138.83 141.19 142.99 138.15 146.04 132.06L147.05 132.49C145.66 135.88 143.65 138.54 141.01 140.47C138.37 142.4 135.15 143.36 131.36 143.36C129.07 143.36 126.93 142.99 124.94 142.25C122.95 141.51 121.23 140.47 119.77 139.14C118.31 137.81 117.16 136.22 116.33 134.37C115.5 132.52 115.09 130.47 115.09 128.21C115.09 125.95 115.5 124 116.33 122.16C117.16 120.32 118.34 118.74 119.88 117.42C121.42 116.1 123.29 115.06 125.47 114.31C127.65 113.56 130.13 113.18 132.88 113.18C135.63 113.18 137.95 113.47 140 114.06C142.05 114.65 143.94 115.28 145.68 115.95L144.32 120.98C142.97 119.05 141.24 117.42 139.13 116.08C137.02 114.74 134.65 114.07 132.01 114.07L132.02 114.08Z" fill="url(#paint3_linear_1_51)"/>
<path d="M149.42 127.98C149.42 125.73 149.83 123.65 150.66 121.77C151.49 119.89 152.66 118.25 154.19 116.89C155.71 115.52 157.52 114.47 159.61 113.73C161.7 112.99 163.99 112.62 166.47 112.62C168.95 112.62 171.23 112.99 173.31 113.73C175.38 114.47 177.18 115.53 178.7 116.89C180.22 118.26 181.4 119.89 182.23 121.77C183.06 123.66 183.47 125.73 183.47 127.98C183.47 130.23 183.06 132.3 182.23 134.16C181.4 136.03 180.23 137.65 178.7 139.02C177.18 140.39 175.38 141.45 173.31 142.21C171.24 142.97 168.96 143.35 166.47 143.35C163.98 143.35 161.7 142.97 159.61 142.21C157.52 141.45 155.71 140.38 154.19 139.02C152.67 137.65 151.49 136.03 150.66 134.16C149.83 132.29 149.42 130.23 149.42 127.98ZM153.87 127.98C153.87 130.12 154.17 132.08 154.78 133.88C155.39 135.67 156.25 137.2 157.38 138.46C158.51 139.72 159.84 140.71 161.38 141.42C162.92 142.13 164.62 142.49 166.47 142.49C168.32 142.49 170.01 142.13 171.53 141.42C173.05 140.71 174.38 139.72 175.5 138.46C176.63 137.2 177.49 135.67 178.1 133.88C178.71 132.09 179.01 130.12 179.01 127.98C179.01 125.84 178.71 123.89 178.1 122.11C177.49 120.34 176.63 118.81 175.5 117.53C174.37 116.25 173.05 115.25 171.53 114.54C170.01 113.83 168.32 113.47 166.47 113.47C164.62 113.47 162.92 113.83 161.38 114.54C159.84 115.25 158.5 116.25 157.38 117.53C156.25 118.81 155.39 120.34 154.78 122.11C154.17 123.88 153.87 125.84 153.87 127.98Z" fill="url(#paint4_linear_1_51)"/>
<path d="M186.41 142.49C187.2 142.24 187.75 141.88 188.07 141.41C188.39 140.94 188.55 140.25 188.55 139.34V104.77C188.55 103.86 188.39 103.18 188.07 102.7C187.75 102.23 187.2 101.88 186.41 101.64V101.32H192.68V139.32C192.68 140.23 192.84 140.91 193.16 141.39C193.48 141.86 194.03 142.22 194.82 142.47V142.76H186.41V142.47V142.49Z" fill="url(#paint5_linear_1_51)"/>
<path d="M223.72 139.34C223.72 140.25 223.88 140.93 224.2 141.41C224.52 141.88 225.07 142.24 225.86 142.49V142.78H219.59V130.47C219.26 132.01 218.81 133.54 218.25 135.07C217.68 136.59 216.94 137.97 216.04 139.22C215.13 140.46 214.06 141.46 212.82 142.23C211.58 142.99 210.11 143.37 208.41 143.37C207.33 143.37 206.17 143.2 204.93 142.85C203.69 142.5 202.54 141.94 201.48 141.17C200.42 140.4 199.54 139.41 198.85 138.21C198.16 137.01 197.81 135.56 197.81 133.86C197.81 131.88 198.29 130.27 199.25 129.05C200.21 127.83 201.44 126.85 202.92 126.13C204.4 125.41 206.02 124.85 207.78 124.45C209.53 124.06 211.22 123.68 212.84 123.32C214.46 122.96 215.89 122.55 217.13 122.08C218.37 121.61 219.2 120.96 219.6 120.13C219.6 117.61 219.11 115.86 218.14 114.88C217.17 113.91 215.77 113.42 213.96 113.42C212.61 113.42 211.29 113.64 209.99 114.07C208.69 114.5 207.47 115.08 206.33 115.79C205.19 116.5 204.16 117.32 203.22 118.25C202.29 119.17 201.53 120.13 200.95 121.11L199.76 116.02C200.63 115.71 201.61 115.36 202.71 114.97C203.81 114.58 204.99 114.2 206.25 113.84C207.51 113.48 208.83 113.19 210.19 112.96C211.56 112.73 212.94 112.61 214.35 112.61C215.62 112.61 216.83 112.74 217.98 112.99C219.13 113.24 220.12 113.67 220.97 114.29C221.82 114.91 222.49 115.73 222.98 116.78C223.47 117.82 223.72 119.13 223.72 120.71V139.35V139.34ZM219.59 121.76C218.68 122.28 217.62 122.72 216.4 123.09C215.18 123.46 213.92 123.83 212.63 124.2C211.34 124.58 210.07 124.99 208.83 125.46C207.59 125.92 206.47 126.51 205.49 127.21C204.51 127.91 203.72 128.79 203.13 129.84C202.54 130.89 202.25 132.19 202.25 133.73C202.25 136.33 202.9 138.38 204.2 139.87C205.5 141.36 207.13 142.11 209.1 142.11C210.49 142.11 211.7 141.77 212.74 141.08C213.78 140.4 214.69 139.5 215.46 138.39C216.23 137.28 216.89 136.04 217.43 134.66C217.97 133.28 218.39 131.92 218.7 130.57C219.01 129.22 219.23 127.94 219.38 126.73C219.53 125.52 219.6 124.53 219.6 123.78V121.76H219.59Z" fill="url(#paint6_linear_1_51)"/>
<path d="M232.71 114.08H229.39V113.18H230.11C231.29 113.18 232.25 112.91 233 112.36C233.75 111.81 234.34 111.12 234.78 110.29C235.21 109.46 235.51 108.55 235.66 107.56C235.81 106.57 235.91 105.66 235.95 104.83H236.85V113.18H244.36V114.08H236.85V135.5C236.85 138.02 237.31 139.77 238.24 140.75C239.16 141.72 240.36 142.21 241.82 142.21C242.84 142.21 243.87 142 244.9 141.59C245.93 141.18 246.92 140.61 247.86 139.9V141.14C246.8 141.85 245.68 142.4 244.49 142.79C243.31 143.18 242.08 143.37 240.81 143.37C239.87 143.37 238.92 143.24 237.98 142.99C237.04 142.74 236.17 142.31 235.38 141.69C234.59 141.07 233.95 140.25 233.46 139.2C232.97 138.16 232.72 136.85 232.72 135.27V114.09L232.71 114.08Z" fill="url(#paint7_linear_1_51)"/>
<path d="M255.02 124.02C254.79 125.08 254.67 126.23 254.67 127.46C254.67 129.66 255.08 131.61 255.91 133.33C256.74 135.04 257.82 136.49 259.16 137.65C260.5 138.82 262 139.7 263.65 140.29C265.31 140.89 266.98 141.19 268.68 141.19C273.96 141.19 278.12 138.15 281.17 132.06L282.18 132.49C280.79 135.88 278.78 138.54 276.14 140.47C273.5 142.4 270.28 143.36 266.49 143.36C264.2 143.36 262.06 142.99 260.07 142.25C258.08 141.51 256.36 140.47 254.9 139.14C253.44 137.81 252.29 136.22 251.46 134.37C250.63 132.52 250.22 130.47 250.22 128.21C250.22 125.95 250.62 124 251.43 122.16C252.24 120.32 253.4 118.74 254.9 117.42C256.4 116.1 258.21 115.06 260.32 114.31C262.43 113.56 264.77 113.18 267.33 113.18C268.99 113.18 270.66 113.37 272.36 113.74C274.06 114.12 275.59 114.74 276.97 115.6C278.35 116.47 279.47 117.58 280.34 118.94C281.21 120.3 281.64 121.99 281.64 124.01H255.02V124.02ZM255.25 123.12H277.27C277.19 121.94 276.92 120.81 276.45 119.72C275.98 118.63 275.32 117.66 274.47 116.82C273.62 115.97 272.59 115.3 271.36 114.81C270.13 114.32 268.75 114.07 267.21 114.07C265.78 114.07 264.43 114.29 263.15 114.72C261.87 115.15 260.71 115.77 259.68 116.58C258.65 117.39 257.75 118.34 256.99 119.44C256.23 120.54 255.65 121.76 255.24 123.11L255.25 123.12Z" fill="url(#paint8_linear_1_51)"/>
<path d="M150.14 60.29C150.14 61.13 150.3 61.78 150.58 62.24C150.88 62.68 151.39 63.01 152.14 63.24V63.52H144.21V63.24C144.95 63.01 145.47 62.68 145.77 62.24C146.07 61.78 146.23 61.12 146.23 60.29V47.46C145.93 47 145.63 46.58 145.32 46.18C144.53 45.18 143.67 44.41 142.74 43.88C141.46 43.14 140.14 42.65 138.79 42.42C137.49 42.21 136.14 42.09 134.81 42.09H133.88C132.74 42.09 131.67 42.04 130.63 41.93C129.35 41.81 128.14 41.53 127 41.05C126.35 40.77 125.74 40.35 125.19 39.82L124.03 39.84V41L120.12 39.81V27.7C120.12 26.84 119.98 26.21 119.68 25.75C119.38 25.31 118.84 24.98 118.1 24.77V24.47H126.03V24.77C125.29 24.98 124.77 25.3 124.47 25.75C124.17 26.21 124.03 26.84 124.03 27.7V36.98C124.24 37.31 124.43 37.58 124.63 37.86C125.09 38.46 125.56 38.95 126.07 39.35C126.23 39.49 126.42 39.63 126.58 39.75H126.6C127.16 40.15 127.72 40.42 128.32 40.63C129.09 40.91 129.9 41.09 130.71 41.16C131.52 41.23 132.38 41.28 133.27 41.28H136.46C137.53 41.28 138.62 41.4 139.69 41.68C140.78 41.94 141.85 42.38 142.97 43.01C144.06 43.64 145.16 44.57 146.22 45.8V27.71C146.22 26.85 146.06 26.22 145.76 25.76C145.46 25.32 144.95 24.99 144.2 24.78V24.48H152.13V24.78C151.39 24.99 150.87 25.31 150.57 25.76C150.29 26.22 150.13 26.85 150.13 27.71V60.3L150.14 60.29Z" fill="url(#paint9_linear_1_51)"/>
<path d="M150.14 27.7C150.14 26.84 150.3 26.21 150.58 25.75C150.88 25.31 151.39 24.98 152.14 24.77V24.47H144.21V24.77C144.95 24.98 145.47 25.3 145.77 25.75C146.07 26.21 146.23 26.84 146.23 27.7V45.79C145.16 44.56 144.07 43.63 142.98 43C141.86 42.37 140.79 41.93 139.7 41.67C138.63 41.39 137.54 41.27 136.47 41.27H133.28C132.4 41.27 131.54 41.22 130.72 41.15C129.91 41.08 129.09 40.89 128.33 40.62C127.73 40.41 127.17 40.13 126.61 39.74H126.59C126.43 39.62 126.24 39.48 126.08 39.34C125.57 38.94 125.1 38.46 124.64 37.85C124.43 37.57 124.24 37.29 124.04 36.97V27.69C124.04 26.83 124.18 26.2 124.48 25.74C124.78 25.3 125.29 24.97 126.04 24.76V24.46H118.11V24.76C118.85 24.97 119.39 25.29 119.69 25.74C119.99 26.2 120.13 26.83 120.13 27.69V60.28C120.13 61.12 119.99 61.77 119.69 62.23C119.39 62.67 118.85 63 118.11 63.23V63.51H126.04V63.23C125.3 63 124.78 62.67 124.48 62.23C124.18 61.77 124.04 61.11 124.04 60.28V39.82L125.2 39.8C125.76 40.33 126.36 40.75 127.01 41.03C128.15 41.52 129.36 41.8 130.64 41.91C131.69 42.03 132.76 42.07 133.89 42.07H134.82C136.15 42.07 137.49 42.19 138.8 42.4C140.15 42.63 141.47 43.12 142.75 43.86C143.68 44.39 144.54 45.16 145.33 46.16C145.63 46.56 145.93 46.97 146.24 47.44V60.27C146.24 61.11 146.08 61.76 145.78 62.22C145.48 62.66 144.97 62.99 144.22 63.22V63.5H152.15V63.22C151.41 62.99 150.89 62.66 150.59 62.22C150.31 61.76 150.15 61.1 150.15 60.27V27.7H150.14Z" fill="url(#paint10_linear_1_51)"/>
<path d="M139.71 6.06L139.5 12.4C139.14 11.19 138.41 9.91 137.33 8.57C136.24 7.22 134.93 5.97 133.39 4.82C131.85 3.66 130.14 2.7 128.25 1.94C126.37 1.18 124.44 0.790001 122.44 0.790001C120.44 0.790001 118.39 1.24 116.55 2.12C114.7 3 113.08 4.24 111.7 5.81C110.31 7.39 109.21 9.24 108.39 11.37C107.58 13.5 107.17 15.83 107.17 18.33C107.17 21.25 107.71 23.83 108.79 26.06C109.88 28.29 111.29 30.18 113.05 31.72C114.35 32.86 115.78 33.79 117.36 34.51V37.5C116.71 37.32 116.09 37.13 115.47 36.91C112.96 35.97 110.78 34.64 108.95 32.94C107.12 31.23 105.7 29.21 104.68 26.87C103.67 24.53 103.16 21.95 103.16 19.14C103.16 16.33 103.68 13.76 104.71 11.41C105.74 9.07 107.17 7.04 109 5.34C110.83 3.63 113.03 2.31 115.58 1.37C118.14 0.430001 120.96 -0.0299988 124.04 -0.0299988C127.12 -0.0299988 130 0.460001 132.66 1.46C135.32 2.46 137.67 3.98 139.7 6.03L139.71 6.06Z" fill="url(#paint11_linear_1_51)"/>
<path d="M138.06 26.58C137.5 28.54 136.67 30.25 135.55 31.7C134.43 33.15 133.11 34.36 131.59 35.35C130.1 36.3 128.43 37.05 126.6 37.53V35.93C126.81 35.88 127.03 35.84 127.24 35.78C128.72 35.41 130.08 34.81 131.31 33.98C132.96 32.87 134.08 31.61 134.69 30.84C135.23 30.16 135.88 29.2 136.46 27.95C136.99 27.49 137.53 27.04 138.06 26.58Z" fill="url(#paint12_linear_1_51)"/>
<path d="M164.65 53.34L164.44 59.68C164.07 58.47 163.35 57.19 162.27 55.84C161.18 54.5 159.87 53.25 158.33 52.1C156.81 50.95 155.1 50 153.25 49.24V47.61C154.76 47.85 156.23 48.24 157.62 48.77C160.28 49.77 162.63 51.29 164.66 53.34H164.65Z" fill="url(#paint13_linear_1_51)"/>
<path d="M169.24 74.21C168.68 76.17 167.85 77.88 166.73 79.33C165.61 80.78 164.29 81.99 162.77 82.97C161.26 83.95 159.57 84.69 157.71 85.19C155.84 85.68 153.85 85.93 151.73 85.93C148.7 85.93 145.92 85.47 143.41 84.53C140.9 83.59 138.72 82.27 136.89 80.56C135.06 78.85 133.64 76.83 132.62 74.49C132.35 73.87 132.11 73.21 131.92 72.55C131.37 70.75 131.1 68.81 131.1 66.77C131.1 63.96 131.62 61.39 132.65 59.04C133.01 58.24 133.41 57.46 133.85 56.74C134.19 56.16 134.58 55.61 134.99 55.08C135.58 54.33 136.22 53.62 136.92 52.96C138.75 51.25 140.95 49.93 143.5 48.99C143.58 48.96 143.65 48.94 143.74 48.91V50.1C142.19 50.94 140.82 52.05 139.61 53.42C138.22 55 137.13 56.85 136.31 58.98C135.5 61.11 135.09 63.44 135.09 65.95C135.09 68.46 135.47 70.58 136.23 72.54C136.37 72.93 136.53 73.31 136.71 73.67C137.8 75.9 139.21 77.79 140.97 79.33C142.72 80.87 144.72 82.02 146.98 82.81C149.24 83.59 151.52 83.97 153.82 83.97C155.4 83.97 156.92 83.78 158.39 83.41C159.87 83.03 161.22 82.44 162.46 81.61C162.89 81.32 164.4 80.31 165.84 78.47C166.74 77.33 167.32 76.24 167.69 75.42C168.2 75.02 168.7 74.61 169.21 74.21H169.24Z" fill="url(#paint14_linear_1_51)"/>
</g>
<defs>
<linearGradient id="paint0_linear_1_51" x1="9.76522e-06" y1="122.05" x2="42.37" y2="122.05" gradientUnits="userSpaceOnUse">
<stop stop-color="#AF7A21"/>
<stop offset="0.29" stop-color="#D0AD63"/>
<stop offset="0.46" stop-color="#DCC07B"/>
<stop offset="0.58" stop-color="#F7E7A9"/>
<stop offset="0.73" stop-color="#D8B972"/>
<stop offset="0.84" stop-color="#BC8C3C"/>
<stop offset="1" stop-color="#B1751F"/>
</linearGradient>
<linearGradient id="paint1_linear_1_51" x1="45.32" y1="122.05" x2="75.69" y2="122.05" gradientUnits="userSpaceOnUse">
<stop stop-color="#AF7A21"/>
<stop offset="0.29" stop-color="#D0AD63"/>
<stop offset="0.46" stop-color="#DCC07B"/>
<stop offset="0.58" stop-color="#F7E7A9"/>
<stop offset="0.73" stop-color="#D8B972"/>
<stop offset="0.84" stop-color="#BC8C3C"/>
<stop offset="1" stop-color="#B1751F"/>
</linearGradient>
<linearGradient id="paint2_linear_1_51" x1="78.67" y1="127.98" x2="112.71" y2="127.98" gradientUnits="userSpaceOnUse">
<stop stop-color="#AF7A21"/>
<stop offset="0.29" stop-color="#D0AD63"/>
<stop offset="0.46" stop-color="#DCC07B"/>
<stop offset="0.58" stop-color="#F7E7A9"/>
<stop offset="0.73" stop-color="#D8B972"/>
<stop offset="0.84" stop-color="#BC8C3C"/>
<stop offset="1" stop-color="#B1751F"/>
</linearGradient>
<linearGradient id="paint3_linear_1_51" x1="115.08" y1="128.27" x2="147.05" y2="128.27" gradientUnits="userSpaceOnUse">
<stop stop-color="#AF7A21"/>
<stop offset="0.29" stop-color="#D0AD63"/>
<stop offset="0.46" stop-color="#DCC07B"/>
<stop offset="0.58" stop-color="#F7E7A9"/>
<stop offset="0.73" stop-color="#D8B972"/>
<stop offset="0.84" stop-color="#BC8C3C"/>
<stop offset="1" stop-color="#B1751F"/>
</linearGradient>
<linearGradient id="paint4_linear_1_51" x1="149.42" y1="127.98" x2="183.46" y2="127.98" gradientUnits="userSpaceOnUse">
<stop stop-color="#AF7A21"/>
<stop offset="0.29" stop-color="#D0AD63"/>
<stop offset="0.46" stop-color="#DCC07B"/>
<stop offset="0.58" stop-color="#F7E7A9"/>
<stop offset="0.73" stop-color="#D8B972"/>
<stop offset="0.84" stop-color="#BC8C3C"/>
<stop offset="1" stop-color="#B1751F"/>
</linearGradient>
<linearGradient id="paint5_linear_1_51" x1="186.41" y1="122.05" x2="194.82" y2="122.05" gradientUnits="userSpaceOnUse">
<stop stop-color="#AF7A21"/>
<stop offset="0.29" stop-color="#D0AD63"/>
<stop offset="0.46" stop-color="#DCC07B"/>
<stop offset="0.58" stop-color="#F7E7A9"/>
<stop offset="0.73" stop-color="#D8B972"/>
<stop offset="0.84" stop-color="#BC8C3C"/>
<stop offset="1" stop-color="#B1751F"/>
</linearGradient>
<linearGradient id="paint6_linear_1_51" x1="197.8" y1="127.98" x2="225.86" y2="127.98" gradientUnits="userSpaceOnUse">
<stop stop-color="#AF7A21"/>
<stop offset="0.29" stop-color="#D0AD63"/>
<stop offset="0.46" stop-color="#DCC07B"/>
<stop offset="0.58" stop-color="#F7E7A9"/>
<stop offset="0.73" stop-color="#D8B972"/>
<stop offset="0.84" stop-color="#BC8C3C"/>
<stop offset="1" stop-color="#B1751F"/>
</linearGradient>
<linearGradient id="paint7_linear_1_51" x1="229.39" y1="124.09" x2="247.85" y2="124.09" gradientUnits="userSpaceOnUse">
<stop stop-color="#AF7A21"/>
<stop offset="0.29" stop-color="#D0AD63"/>
<stop offset="0.46" stop-color="#DCC07B"/>
<stop offset="0.58" stop-color="#F7E7A9"/>
<stop offset="0.73" stop-color="#D8B972"/>
<stop offset="0.84" stop-color="#BC8C3C"/>
<stop offset="1" stop-color="#B1751F"/>
</linearGradient>
<linearGradient id="paint8_linear_1_51" x1="250.23" y1="128.27" x2="282.19" y2="128.27" gradientUnits="userSpaceOnUse">
<stop stop-color="#AF7A21"/>
<stop offset="0.29" stop-color="#D0AD63"/>
<stop offset="0.46" stop-color="#DCC07B"/>
<stop offset="0.58" stop-color="#F7E7A9"/>
<stop offset="0.73" stop-color="#D8B972"/>
<stop offset="0.84" stop-color="#BC8C3C"/>
<stop offset="1" stop-color="#B1751F"/>
</linearGradient>
<linearGradient id="paint9_linear_1_51" x1="118.11" y1="43.99" x2="152.14" y2="43.99" gradientUnits="userSpaceOnUse">
<stop stop-color="#AF7A21"/>
<stop offset="0.29" stop-color="#D0AD63"/>
<stop offset="0.46" stop-color="#DCC07B"/>
<stop offset="0.58" stop-color="#F7E7A9"/>
<stop offset="0.73" stop-color="#D8B972"/>
<stop offset="0.84" stop-color="#BC8C3C"/>
<stop offset="1" stop-color="#B1751F"/>
</linearGradient>
<linearGradient id="paint10_linear_1_51" x1="118.11" y1="43.99" x2="152.14" y2="43.99" gradientUnits="userSpaceOnUse">
<stop stop-color="#AF7A21"/>
<stop offset="0.29" stop-color="#D0AD63"/>
<stop offset="0.46" stop-color="#DCC07B"/>
<stop offset="0.58" stop-color="#F7E7A9"/>
<stop offset="0.73" stop-color="#D8B972"/>
<stop offset="0.84" stop-color="#BC8C3C"/>
<stop offset="1" stop-color="#B1751F"/>
</linearGradient>
<linearGradient id="paint11_linear_1_51" x1="103.16" y1="18.76" x2="139.71" y2="18.76" gradientUnits="userSpaceOnUse">
<stop stop-color="#AF7A21"/>
<stop offset="0.29" stop-color="#D0AD63"/>
<stop offset="0.46" stop-color="#DCC07B"/>
<stop offset="0.58" stop-color="#F7E7A9"/>
<stop offset="0.73" stop-color="#D8B972"/>
<stop offset="0.84" stop-color="#BC8C3C"/>
<stop offset="1" stop-color="#B1751F"/>
</linearGradient>
<linearGradient id="paint12_linear_1_51" x1="126.59" y1="32.05" x2="138.06" y2="32.05" gradientUnits="userSpaceOnUse">
<stop stop-color="#AF7A21"/>
<stop offset="0.29" stop-color="#D0AD63"/>
<stop offset="0.46" stop-color="#DCC07B"/>
<stop offset="0.58" stop-color="#F7E7A9"/>
<stop offset="0.73" stop-color="#D8B972"/>
<stop offset="0.84" stop-color="#BC8C3C"/>
<stop offset="1" stop-color="#B1751F"/>
</linearGradient>
<linearGradient id="paint13_linear_1_51" x1="153.24" y1="53.65" x2="164.65" y2="53.65" gradientUnits="userSpaceOnUse">
<stop stop-color="#AF7A21"/>
<stop offset="0.29" stop-color="#D0AD63"/>
<stop offset="0.46" stop-color="#DCC07B"/>
<stop offset="0.58" stop-color="#F7E7A9"/>
<stop offset="0.73" stop-color="#D8B972"/>
<stop offset="0.84" stop-color="#BC8C3C"/>
<stop offset="1" stop-color="#B1751F"/>
</linearGradient>
<linearGradient id="paint14_linear_1_51" x1="131.1" y1="67.41" x2="169.24" y2="67.41" gradientUnits="userSpaceOnUse">
<stop stop-color="#AF7A21"/>
<stop offset="0.29" stop-color="#D0AD63"/>
<stop offset="0.46" stop-color="#DCC07B"/>
<stop offset="0.58" stop-color="#F7E7A9"/>
<stop offset="0.73" stop-color="#D8B972"/>
<stop offset="0.84" stop-color="#BC8C3C"/>
<stop offset="1" stop-color="#B1751F"/>
</linearGradient>
<clipPath id="clip0_1_51">
<rect width="282.19" height="143.35" fill="white"/>
</clipPath>
</defs>
</svg>
