<svg width="611" height="92" viewBox="0 0 611 92" fill="none" xmlns="http://www.w3.org/2000/svg">
<path d="M9.60213 44.046C9.60213 51.0415 10.8997 57.2166 13.5165 62.5712C16.1117 67.9474 19.5287 72.46 23.7458 76.1521C27.963 79.8442 32.764 82.6078 38.1923 84.4863C43.5989 86.3647 49.092 87.2931 54.6283 87.2931C58.413 87.2931 62.0895 86.8397 65.6362 85.9545C69.1829 85.0693 72.4485 83.6226 75.4113 81.6578C78.3958 79.693 81.0991 77.1669 83.5429 74.1009C85.9866 71.035 87.9763 67.3429 89.5118 63.0246L91.6311 63.8883C90.2903 68.5952 88.2791 72.6759 85.5974 76.1521C82.9157 79.6283 79.7366 82.5431 76.1034 84.8965C72.4701 87.25 68.4044 89.0204 63.9061 90.2079C59.4294 91.3954 54.65 91.9784 49.5678 91.9784C42.2797 91.9784 35.5971 90.8557 29.5633 88.6102C23.5295 86.3647 18.296 83.1908 13.9058 79.0885C9.51562 74.9862 6.09865 70.1281 3.65487 64.5144C1.21108 58.9007 0 52.7257 0 45.9892C0 39.2528 1.23271 33.0777 3.71974 27.464C6.20678 21.8503 9.64538 16.9923 14.0355 12.8899C18.4257 8.78761 23.7026 5.6137 29.8445 3.36822C35.9864 1.12274 42.7771 0 50.1949 0C57.6128 0 64.5116 1.18751 70.913 3.58413C77.3145 5.98075 82.9373 9.62966 87.8249 14.5309L87.3275 29.7526C86.4624 26.8378 84.7107 23.7719 82.1155 20.5548C79.5203 17.3377 76.3629 14.3365 72.6431 11.5729C68.9234 8.8092 64.8144 6.49894 60.2945 4.68528C55.7745 2.85003 51.1249 1.94321 46.3238 1.94321C41.5227 1.94321 36.6135 3.00116 32.1585 5.1171C27.7251 7.23303 23.8323 10.191 20.5018 13.9695C17.1714 17.748 14.533 22.2173 12.5649 27.3128C10.5969 32.43 9.62376 38.0005 9.62376 44.046H9.60213Z" fill="url(#paint0_linear_164_155)"/>
<path d="M111.549 64.1258V83.2772C111.549 85.242 111.895 86.7102 112.587 87.7465C113.279 88.7613 114.469 89.5386 116.177 90.0784V90.7045H97.9893V90.0784C99.6978 89.5386 100.887 88.7613 101.579 87.7465C102.271 86.7317 102.617 85.242 102.617 83.2772V8.63647C102.617 6.67167 102.271 5.20347 101.579 4.16709C100.887 3.15231 99.6978 2.39661 97.9893 1.87842V1.1875H111.549V51.6029C112.046 49.5733 112.739 47.5654 113.604 45.6222C115.399 41.671 117.691 38.1948 120.502 35.1936C123.314 32.1924 126.536 29.839 130.169 28.1117C133.803 26.3844 137.566 25.5208 141.48 25.5208C143.513 25.5208 145.567 25.8014 147.644 26.3412C149.698 26.881 151.58 27.8094 153.31 29.1481C155.018 30.4867 156.402 32.2572 157.462 34.5243C158.522 36.7698 159.062 39.5982 159.062 43.0096V83.2556C159.062 85.2204 159.408 86.6886 160.1 87.725C160.792 88.7397 161.982 89.517 163.69 90.0568V90.6829H145.503V90.0568C147.211 89.517 148.4 88.7397 149.093 87.725C149.785 86.7102 150.131 85.2204 150.131 83.2556V42.513C150.131 37.072 149.114 33.2936 147.103 31.1776C145.092 29.0833 142.518 28.0253 139.382 28.0253C135.965 28.0253 132.592 29.0401 129.261 31.0481C125.931 33.0561 122.946 35.755 120.286 39.1232C117.648 42.4914 115.528 46.3347 113.95 50.6745C112.371 54.9927 111.571 59.4621 111.571 64.0826L111.549 64.1258Z" fill="url(#paint1_linear_164_155)"/>
<path d="M170.113 58.7712C170.113 53.9132 171 49.4222 172.795 45.3631C174.59 41.2824 177.12 37.763 180.429 34.8266C183.716 31.8686 187.631 29.6015 192.151 28.0038C196.671 26.4061 201.623 25.6072 206.986 25.6072C212.35 25.6072 217.281 26.4061 221.779 28.0038C226.256 29.6015 230.148 31.8902 233.436 34.8266C236.723 37.7846 239.275 41.304 241.07 45.3631C242.865 49.4438 243.751 53.9132 243.751 58.7712C243.751 63.6292 242.865 68.0986 241.07 72.1146C239.275 76.1521 236.744 79.6499 233.436 82.6079C230.148 85.5659 226.256 87.8546 221.779 89.4955C217.302 91.1364 212.371 91.9569 206.986 91.9569C201.601 91.9569 196.671 91.1364 192.151 89.4955C187.631 87.8546 183.716 85.5443 180.429 82.6079C177.142 79.6499 174.59 76.1521 172.795 72.1146C171 68.077 170.113 63.6292 170.113 58.7712ZM179.737 58.7712C179.737 63.3917 180.386 67.6236 181.705 71.51C183.024 75.3964 184.884 78.6783 187.328 81.3988C189.772 84.1193 192.648 86.2568 195.979 87.7898C199.309 89.3227 202.986 90.1 206.986 90.1C210.987 90.1 214.642 89.3227 217.929 87.7898C221.217 86.2568 224.093 84.1193 226.515 81.3988C228.959 78.6783 230.819 75.3749 232.138 71.51C233.457 67.6452 234.106 63.3917 234.106 58.7712C234.106 54.1507 233.457 49.9404 232.138 46.0972C230.819 42.2756 228.959 38.9721 226.515 36.2084C224.071 33.4448 221.217 31.2857 217.929 29.7527C214.642 28.2197 210.987 27.4424 206.986 27.4424C202.986 27.4424 199.309 28.2197 195.979 29.7527C192.648 31.2857 189.75 33.4448 187.328 36.2084C184.884 38.9721 183.024 42.2756 181.705 46.0972C180.386 49.9188 179.737 54.1507 179.737 58.7712Z" fill="url(#paint2_linear_164_155)"/>
<path d="M285.49 28.7594C281.663 28.7594 278.073 29.4935 274.742 30.9833C271.412 32.4515 268.535 34.481 266.156 37.0288C263.756 39.5766 261.896 42.6425 260.533 46.1619C259.171 49.7028 258.501 53.5245 258.501 57.6484C258.501 62.3984 259.387 66.6087 261.182 70.3224C262.977 74.0361 265.313 77.1452 268.211 79.6498C271.109 82.1759 274.353 84.076 277.921 85.3498C281.511 86.6453 285.123 87.2931 288.799 87.2931C300.218 87.2931 309.215 80.7293 315.811 67.5803L317.995 68.5087C314.989 75.8282 310.642 81.5714 304.933 85.7385C299.223 89.9056 292.259 91.9783 284.063 91.9783C279.111 91.9783 274.483 91.1795 270.179 89.5817C265.875 87.984 262.155 85.7385 258.998 82.8669C255.841 79.9952 253.354 76.5622 251.559 72.5679C249.764 68.5735 248.877 64.1473 248.877 59.2677C248.877 54.3881 249.764 50.1778 251.559 46.2051C253.354 42.2323 255.905 38.8209 259.236 35.9708C262.566 33.1208 266.611 30.8753 271.325 29.256C276.04 27.6366 281.403 26.8162 287.35 26.8162C293.298 26.8162 298.315 27.4423 302.748 28.7162C307.182 29.9901 311.269 31.3503 315.032 32.7969L312.091 43.6573C309.171 39.4902 305.43 35.9708 300.867 33.0776C296.304 30.1844 291.178 28.7378 285.469 28.7378L285.49 28.7594Z" fill="url(#paint3_linear_164_155)"/>
<path d="M323.12 58.7712C323.12 53.9132 324.007 49.4222 325.802 45.3631C327.597 41.304 330.127 37.763 333.436 34.8266C336.723 31.8686 340.638 29.6015 345.158 28.0038C349.678 26.4061 354.63 25.6072 359.993 25.6072C365.357 25.6072 370.288 26.4061 374.786 28.0038C379.263 29.6015 383.155 31.8902 386.443 34.8266C389.73 37.7846 392.282 41.304 394.077 45.3631C395.872 49.4438 396.758 53.9132 396.758 58.7712C396.758 63.6292 395.872 68.0986 394.077 72.1146C392.282 76.1521 389.751 79.6499 386.443 82.6079C383.155 85.5659 379.263 87.8546 374.786 89.4955C370.309 91.1364 365.378 91.9569 359.993 91.9569C354.608 91.9569 349.678 91.1364 345.158 89.4955C340.638 87.8546 336.723 85.5443 333.436 82.6079C330.149 79.6499 327.597 76.1521 325.802 72.1146C324.007 68.077 323.12 63.6292 323.12 58.7712ZM332.744 58.7712C332.744 63.3917 333.393 67.6236 334.712 71.51C336.031 75.3749 337.891 78.6783 340.335 81.3988C342.779 84.1193 345.655 86.2568 348.986 87.7898C352.316 89.3227 355.993 90.1 359.993 90.1C363.994 90.1 367.649 89.3227 370.936 87.7898C374.224 86.2568 377.1 84.1193 379.522 81.3988C381.966 78.6783 383.826 75.3749 385.145 71.51C386.464 67.6452 387.113 63.3917 387.113 58.7712C387.113 54.1507 386.464 49.9404 385.145 46.0972C383.826 42.2756 381.966 38.9721 379.522 36.2084C377.078 33.4448 374.224 31.2857 370.936 29.7527C367.649 28.2197 363.994 27.4424 359.993 27.4424C355.993 27.4424 352.316 28.2197 348.986 29.7527C345.655 31.2857 342.757 33.4448 340.335 36.2084C337.891 38.9721 336.031 42.2756 334.712 46.0972C333.393 49.9188 332.744 54.1507 332.744 58.7712Z" fill="url(#paint4_linear_164_155)"/>
<path d="M403.116 90.0999C404.825 89.5601 406.014 88.7828 406.706 87.768C407.398 86.7532 407.745 85.2634 407.745 83.2986V8.65793C407.745 6.69314 407.398 5.22494 406.706 4.18856C406.014 3.17378 404.825 2.41809 403.116 1.8999V1.20898H416.676V83.2555C416.676 85.2203 417.022 86.6885 417.714 87.7248C418.406 88.7396 419.596 89.5169 421.304 90.0567V90.6828H403.116V90.0567V90.0999Z" fill="url(#paint5_linear_164_155)"/>
<path d="M483.805 83.2988C483.805 85.2636 484.151 86.7318 484.843 87.7682C485.535 88.783 486.724 89.5602 488.433 90.1V90.7262H474.873V64.1474C474.159 67.4725 473.186 70.7759 471.975 74.0794C470.742 77.3612 469.142 80.3408 467.196 83.0397C465.228 85.717 462.914 87.8761 460.232 89.5386C457.55 91.1796 454.371 92 450.695 92C448.359 92 445.85 91.633 443.169 90.8773C440.487 90.1216 438 88.9125 435.707 87.25C433.415 85.5875 431.512 83.4499 430.02 80.859C428.528 78.2681 427.771 75.1373 427.771 71.4668C427.771 67.1918 428.809 63.7156 430.885 61.0815C432.961 58.4474 435.621 56.3314 438.822 54.7768C442.022 53.2223 445.526 52.0132 449.332 51.1495C453.117 50.3075 456.772 49.487 460.275 48.7097C463.779 47.9324 466.871 47.0472 469.553 46.0324C472.235 45.0176 474.03 43.6142 474.895 41.8221C474.895 36.3812 473.835 32.6027 471.737 30.4868C469.639 28.3924 466.612 27.3345 462.697 27.3345C459.778 27.3345 456.923 27.8095 454.112 28.7379C451.3 29.6663 448.662 30.9186 446.196 32.4516C443.731 33.9845 441.503 35.755 439.47 37.763C437.459 39.7494 435.816 41.8221 434.561 43.9381L431.988 32.9482C433.869 32.2788 435.989 31.5231 438.368 30.6811C440.746 29.839 443.298 29.0186 446.023 28.2413C448.748 27.464 451.603 26.8379 454.544 26.3413C457.507 25.8447 460.491 25.5856 463.541 25.5856C466.287 25.5856 468.904 25.8663 471.391 26.406C473.878 26.9458 476.019 27.8742 477.857 29.2129C479.696 30.5515 481.145 32.322 482.204 34.5891C483.264 36.8346 483.805 39.663 483.805 43.0744V83.3204V83.2988ZM474.873 45.3415C472.905 46.4642 470.613 47.4142 467.974 48.2131C465.336 49.012 462.611 49.8109 459.821 50.6097C457.031 51.4302 454.285 52.3154 451.603 53.3302C448.921 54.3234 446.499 55.5973 444.38 57.1087C442.26 58.6201 440.552 60.5201 439.276 62.7872C438 65.0542 437.373 67.8611 437.373 71.1861C437.373 76.7998 438.778 81.226 441.59 84.4431C444.401 87.6602 447.926 89.2795 452.187 89.2795C455.193 89.2795 457.81 88.5455 460.059 87.0557C462.308 85.5875 464.276 83.6442 465.941 81.2476C467.606 78.851 469.034 76.1737 470.202 73.1941C471.369 70.2145 472.278 67.2782 472.948 64.3633C473.619 61.4485 474.094 58.6849 474.419 56.0723C474.743 53.4598 474.895 51.3223 474.895 49.7029V45.3415H474.873Z" fill="url(#paint6_linear_164_155)"/>
<path d="M503.247 28.7594H496.067V26.8162H497.624C500.176 26.8162 502.252 26.2333 503.874 25.0458C505.496 23.8582 506.772 22.3684 507.723 20.5764C508.653 18.7843 509.302 16.8195 509.627 14.682C509.951 12.5445 510.167 10.5797 510.254 8.7876H512.2V26.8162H528.442V28.7594H512.2V75.0077C512.2 80.4487 513.195 84.2272 515.206 86.3431C517.196 88.4375 519.791 89.4954 522.948 89.4954C525.154 89.4954 527.382 89.042 529.609 88.1568C531.837 87.2715 533.978 86.0408 536.011 84.5078V87.1852C533.718 88.7181 531.296 89.9056 528.723 90.7477C526.171 91.5898 523.511 92 520.764 92C518.731 92 516.677 91.7193 514.644 91.1795C512.611 90.6398 510.73 89.7113 509.021 88.3727C507.313 87.034 505.928 85.2635 504.869 82.9965C503.809 80.751 503.268 77.9226 503.268 74.5112V28.781L503.247 28.7594Z" fill="url(#paint7_linear_164_155)"/>
<path d="M551.495 50.221C550.998 52.5097 550.738 54.9927 550.738 57.6484C550.738 62.3984 551.625 66.6087 553.42 70.3224C555.215 74.0145 557.551 77.1452 560.449 79.6498C563.347 82.1759 566.591 84.076 570.159 85.3498C573.749 86.6453 577.361 87.2931 581.037 87.2931C592.456 87.2931 601.452 80.7293 608.048 67.5803L610.233 68.5087C607.227 75.8282 602.88 81.5714 597.17 85.7385C591.461 89.9056 584.497 91.9783 576.301 91.9783C571.348 91.9783 566.72 91.1795 562.417 89.5817C558.113 87.984 554.393 85.7385 551.236 82.8669C548.078 79.9952 545.591 76.5622 543.796 72.5679C542.001 68.5735 541.115 64.1473 541.115 59.2677C541.115 54.3881 541.98 50.1778 543.731 46.2051C545.483 42.2323 547.992 38.8209 551.236 35.9708C554.48 33.1208 558.394 30.8753 562.957 29.256C567.521 27.6366 572.581 26.8162 578.117 26.8162C581.707 26.8162 585.319 27.2264 588.996 28.0253C592.672 28.8457 595.981 30.1844 598.965 32.0412C601.95 33.9197 604.372 36.3163 606.253 39.2527C608.135 42.1891 609.065 45.838 609.065 50.1994H551.495V50.221ZM551.993 48.2778H599.614C599.441 45.73 598.857 43.2902 597.841 40.9368C596.824 38.5834 595.397 36.489 593.559 34.6754C591.721 32.8401 589.493 31.3935 586.833 30.3355C584.173 29.2776 581.188 28.7378 577.858 28.7378C574.765 28.7378 571.846 29.2128 569.078 30.1412C566.309 31.0696 563.801 32.4083 561.573 34.1572C559.346 35.9061 557.399 37.9572 555.756 40.3322C554.112 42.7073 552.858 45.3414 551.971 48.2562L551.993 48.2778Z" fill="url(#paint8_linear_164_155)"/>
<defs>
<linearGradient id="paint0_linear_164_155" x1="-0.0216264" y1="45.9676" x2="91.6095" y2="45.9676" gradientUnits="userSpaceOnUse">
<stop stop-color="#AF7A21"/>
<stop offset="0.29" stop-color="#D0AD63"/>
<stop offset="0.46" stop-color="#DCC07B"/>
<stop offset="0.58" stop-color="#F7E7A9"/>
<stop offset="0.73" stop-color="#D8B972"/>
<stop offset="0.84" stop-color="#BC8C3C"/>
<stop offset="1" stop-color="#B1751F"/>
</linearGradient>
<linearGradient id="paint1_linear_164_155" x1="97.9893" y1="45.9676" x2="163.669" y2="45.9676" gradientUnits="userSpaceOnUse">
<stop stop-color="#AF7A21"/>
<stop offset="0.29" stop-color="#D0AD63"/>
<stop offset="0.46" stop-color="#DCC07B"/>
<stop offset="0.58" stop-color="#F7E7A9"/>
<stop offset="0.73" stop-color="#D8B972"/>
<stop offset="0.84" stop-color="#BC8C3C"/>
<stop offset="1" stop-color="#B1751F"/>
</linearGradient>
<linearGradient id="paint2_linear_164_155" x1="170.113" y1="58.7712" x2="243.73" y2="58.7712" gradientUnits="userSpaceOnUse">
<stop stop-color="#AF7A21"/>
<stop offset="0.29" stop-color="#D0AD63"/>
<stop offset="0.46" stop-color="#DCC07B"/>
<stop offset="0.58" stop-color="#F7E7A9"/>
<stop offset="0.73" stop-color="#D8B972"/>
<stop offset="0.84" stop-color="#BC8C3C"/>
<stop offset="1" stop-color="#B1751F"/>
</linearGradient>
<linearGradient id="paint3_linear_164_155" x1="248.855" y1="59.3973" x2="317.995" y2="59.3973" gradientUnits="userSpaceOnUse">
<stop stop-color="#AF7A21"/>
<stop offset="0.29" stop-color="#D0AD63"/>
<stop offset="0.46" stop-color="#DCC07B"/>
<stop offset="0.58" stop-color="#F7E7A9"/>
<stop offset="0.73" stop-color="#D8B972"/>
<stop offset="0.84" stop-color="#BC8C3C"/>
<stop offset="1" stop-color="#B1751F"/>
</linearGradient>
<linearGradient id="paint4_linear_164_155" x1="323.12" y1="58.7712" x2="396.737" y2="58.7712" gradientUnits="userSpaceOnUse">
<stop stop-color="#AF7A21"/>
<stop offset="0.29" stop-color="#D0AD63"/>
<stop offset="0.46" stop-color="#DCC07B"/>
<stop offset="0.58" stop-color="#F7E7A9"/>
<stop offset="0.73" stop-color="#D8B972"/>
<stop offset="0.84" stop-color="#BC8C3C"/>
<stop offset="1" stop-color="#B1751F"/>
</linearGradient>
<linearGradient id="paint5_linear_164_155" x1="403.116" y1="45.9675" x2="421.304" y2="45.9675" gradientUnits="userSpaceOnUse">
<stop stop-color="#AF7A21"/>
<stop offset="0.29" stop-color="#D0AD63"/>
<stop offset="0.46" stop-color="#DCC07B"/>
<stop offset="0.58" stop-color="#F7E7A9"/>
<stop offset="0.73" stop-color="#D8B972"/>
<stop offset="0.84" stop-color="#BC8C3C"/>
<stop offset="1" stop-color="#B1751F"/>
</linearGradient>
<linearGradient id="paint6_linear_164_155" x1="427.749" y1="58.7712" x2="488.433" y2="58.7712" gradientUnits="userSpaceOnUse">
<stop stop-color="#AF7A21"/>
<stop offset="0.29" stop-color="#D0AD63"/>
<stop offset="0.46" stop-color="#DCC07B"/>
<stop offset="0.58" stop-color="#F7E7A9"/>
<stop offset="0.73" stop-color="#D8B972"/>
<stop offset="0.84" stop-color="#BC8C3C"/>
<stop offset="1" stop-color="#B1751F"/>
</linearGradient>
<linearGradient id="paint7_linear_164_155" x1="496.067" y1="50.3722" x2="535.989" y2="50.3722" gradientUnits="userSpaceOnUse">
<stop stop-color="#AF7A21"/>
<stop offset="0.29" stop-color="#D0AD63"/>
<stop offset="0.46" stop-color="#DCC07B"/>
<stop offset="0.58" stop-color="#F7E7A9"/>
<stop offset="0.73" stop-color="#D8B972"/>
<stop offset="0.84" stop-color="#BC8C3C"/>
<stop offset="1" stop-color="#B1751F"/>
</linearGradient>
<linearGradient id="paint8_linear_164_155" x1="541.136" y1="59.3973" x2="610.254" y2="59.3973" gradientUnits="userSpaceOnUse">
<stop stop-color="#AF7A21"/>
<stop offset="0.29" stop-color="#D0AD63"/>
<stop offset="0.46" stop-color="#DCC07B"/>
<stop offset="0.58" stop-color="#F7E7A9"/>
<stop offset="0.73" stop-color="#D8B972"/>
<stop offset="0.84" stop-color="#BC8C3C"/>
<stop offset="1" stop-color="#B1751F"/>
</linearGradient>
</defs>
</svg>
