<svg width="1920" height="4593" viewBox="0 0 1920 4593" fill="none" xmlns="http://www.w3.org/2000/svg">
<g clip-path="url(#clip0_160_17)" filter="url(#filter0_dddddd_160_17)">
<path d="M1088.64 961.47C1088.64 969.952 1090.29 976.54 1093.13 981.234C1096.17 985.722 1101.36 989.017 1108.89 991.364V994.205H1028.62V991.364C1036.15 989.017 1041.34 985.722 1044.39 981.234C1047.43 976.54 1049.08 969.952 1049.08 961.47V831.52C1046.03 826.826 1042.94 822.585 1039.9 818.591C1031.91 808.461 1023.18 800.679 1013.76 795.285C1000.83 787.75 987.411 782.809 973.744 780.462C960.57 778.362 946.903 777.168 933.483 777.168H924.056C912.529 777.168 901.702 776.715 891.122 775.521C878.196 774.327 865.928 771.527 854.402 766.586C847.815 763.745 841.681 759.504 836.041 754.11L824.267 754.357V766.133L784.747 754.11V631.447C784.747 622.718 783.348 616.377 780.26 611.683C777.214 607.195 771.78 603.901 764.246 601.801V598.754H844.522V601.801C836.988 603.901 831.801 607.195 828.755 611.683C825.708 616.377 824.267 622.759 824.267 631.447V725.369C826.367 728.663 828.261 731.504 830.401 734.304C835.094 740.439 839.828 745.38 844.974 749.374C846.621 750.774 848.515 752.215 850.161 753.368H850.408C856.048 757.362 861.688 760.203 867.822 762.303C875.602 765.145 883.836 766.997 892.069 767.697C900.302 768.397 909.03 768.892 917.963 768.892H950.196C961.023 768.892 972.097 770.086 982.924 772.886C993.998 775.48 1004.82 779.968 1016.1 786.309C1027.18 792.65 1038.21 802.079 1049.04 814.555V631.406C1049.04 622.677 1047.39 616.336 1044.34 611.642C1041.3 607.154 1036.11 603.86 1028.58 601.76V598.713H1108.85V601.76C1101.32 603.86 1096.13 607.154 1093.09 611.642C1090.25 616.336 1088.6 622.718 1088.6 631.406V961.429L1088.64 961.47Z" fill="url(#paint0_linear_160_17)"/>
<path d="M1088.64 631.447C1088.64 622.718 1090.29 616.377 1093.13 611.683C1096.17 607.195 1101.36 603.901 1108.89 601.801V598.754H1028.62V601.801C1036.15 603.901 1041.34 607.195 1044.39 611.683C1047.43 616.377 1049.08 622.759 1049.08 631.447V814.596C1038.25 802.12 1027.18 792.691 1016.15 786.35C1004.87 780.009 994.039 775.521 982.965 772.927C972.138 770.086 961.064 768.933 950.238 768.933H918.004C909.071 768.933 900.344 768.48 892.11 767.739C883.877 767.039 875.644 765.145 867.863 762.345C861.729 760.245 856.089 757.404 850.45 753.41H850.203C848.556 752.215 846.662 750.815 845.016 749.415C839.829 745.421 835.135 740.48 830.442 734.345C828.343 731.504 826.449 728.704 824.309 725.41V631.488C824.309 622.759 825.708 616.418 828.796 611.724C831.842 607.236 837.029 603.942 844.563 601.842V598.795H764.288V601.842C771.821 603.942 777.214 607.236 780.301 611.724C783.348 616.418 784.789 622.8 784.789 631.488V961.511C784.789 969.993 783.389 976.582 780.301 981.276C777.255 985.764 771.821 989.058 764.288 991.405V994.246H844.563V991.405C837.029 989.058 831.842 985.764 828.796 981.276C825.749 976.582 824.309 969.993 824.309 961.511V754.357L836.082 754.11C841.722 759.504 847.856 763.745 854.443 766.586C865.969 771.527 878.196 774.368 891.163 775.521C901.743 776.715 912.57 777.168 924.097 777.168H933.524C946.944 777.168 960.57 778.362 973.785 780.462C987.452 782.809 1000.83 787.75 1013.8 795.285C1023.23 800.679 1031.91 808.461 1039.94 818.591C1042.99 822.585 1046.07 826.826 1049.12 831.52V961.47C1049.12 969.952 1047.47 976.54 1044.43 981.234C1041.38 985.722 1036.19 989.017 1028.66 991.364V994.205H1108.94V991.364C1101.4 989.017 1096.21 985.722 1093.17 981.234C1090.33 976.54 1088.68 969.952 1088.68 961.47V631.447H1088.64Z" fill="url(#paint1_linear_160_17)"/>
<path d="M983.047 412.352L980.907 476.545C977.284 464.274 969.874 451.345 958.965 437.757C947.932 424.128 934.677 411.487 919.033 399.834C903.472 388.058 886.141 378.423 866.999 370.682C847.98 362.982 828.384 359.029 808.212 359.029C788.041 359.029 767.21 363.559 748.562 372.535C729.831 381.47 713.406 393.946 699.491 409.922C685.371 425.94 674.297 444.675 665.982 466.251C657.831 487.827 653.632 511.42 653.632 536.784C653.632 566.39 659.107 592.413 670.057 615.101C681.09 637.665 695.416 656.811 713.117 672.376C726.291 683.946 740.781 693.334 756.713 700.664V730.969C750.167 729.198 743.828 727.263 737.612 724.957C712.171 715.487 690.146 701.981 671.663 684.729C653.179 667.476 638.77 646.97 628.438 623.294C618.187 599.536 613.041 573.513 613.041 545.061C613.041 516.608 618.269 490.585 628.767 466.827C639.182 443.151 653.673 422.604 672.157 405.311C690.723 387.976 712.912 374.635 738.805 365.164C764.699 355.694 793.269 351 824.515 351C855.76 351 884.865 356.023 911.829 366.111C938.711 376.199 962.546 391.64 983.089 412.352H983.047Z" fill="url(#paint2_linear_160_17)"/>
<path d="M966.334 620.165C960.694 640.053 952.214 657.306 940.893 671.964C929.572 686.623 916.234 698.934 900.838 708.899C885.729 718.534 868.851 726.069 850.285 731.01V714.828C852.426 714.375 854.607 713.922 856.748 713.304C871.692 709.599 885.482 703.505 897.956 695.105C914.711 683.823 926.032 671.099 932.165 663.276C937.599 656.358 944.227 646.641 950.114 634.041C955.507 629.43 960.9 624.818 966.293 620.165H966.334Z" fill="url(#paint3_linear_160_17)"/>
<path d="M1235.48 891.142L1233.34 955.335C1229.64 943.065 1222.31 930.135 1211.4 916.506C1200.37 902.959 1187.11 890.319 1171.47 878.666C1156.07 867.013 1138.78 857.378 1120.01 849.678V833.167C1135.36 835.637 1150.14 839.549 1164.22 844.902C1191.1 854.99 1214.94 870.431 1235.48 891.142Z" fill="url(#paint4_linear_160_17)"/>
<path d="M1282 1102.46C1276.36 1122.34 1267.88 1139.6 1256.56 1154.25C1245.24 1168.91 1231.9 1181.22 1216.5 1191.11C1201.15 1201.03 1184.06 1208.52 1165.25 1213.55C1146.31 1218.57 1126.18 1221.04 1104.78 1221.04C1074.11 1221.04 1045.99 1216.35 1020.55 1206.88C995.109 1197.41 973.085 1183.98 954.601 1166.65C936.117 1149.4 921.709 1128.89 911.376 1105.21C908.659 1098.91 906.23 1092.28 904.296 1085.57C898.738 1067.29 895.98 1047.73 895.98 1026.98C895.98 998.528 901.208 972.505 911.706 948.747C915.328 940.635 919.404 932.812 923.891 925.483H923.973C927.431 919.636 931.383 914.077 935.541 908.683C941.469 901.148 948.015 893.901 955.095 887.272C973.661 870.019 995.85 856.596 1021.74 847.125C1022.53 846.837 1023.27 846.59 1024.13 846.261V858.284C1008.49 866.848 994.615 878.007 982.348 891.883C968.31 907.818 957.236 926.635 948.92 948.211C940.769 969.787 936.611 993.381 936.611 1018.83C936.611 1044.27 940.481 1065.69 948.179 1085.57C949.579 1089.49 951.267 1093.36 953.037 1097.06C964.07 1119.63 978.396 1138.77 996.097 1154.34C1013.84 1169.9 1034.09 1181.55 1056.9 1189.54C1079.79 1197.41 1102.84 1201.32 1126.18 1201.32C1142.12 1201.32 1157.55 1199.38 1172.5 1195.68C1187.44 1191.81 1201.15 1185.79 1213.7 1177.4C1218.07 1174.47 1233.3 1164.18 1247.91 1145.57C1256.97 1134 1262.86 1123.04 1266.64 1114.73C1271.79 1110.65 1276.9 1106.57 1282.04 1102.5L1282 1102.46Z" fill="url(#paint5_linear_160_17)"/>
</g>
<defs>
<filter id="filter0_dddddd_160_17" x="-2758.76" y="-3020.76" width="7412.52" height="7613.52" filterUnits="userSpaceOnUse" color-interpolation-filters="sRGB">
<feFlood flood-opacity="0" result="BackgroundImageFix"/>
<feColorMatrix in="SourceAlpha" type="matrix" values="0 0 0 0 0 0 0 0 0 0 0 0 0 0 0 0 0 0 127 0" result="hardAlpha"/>
<feOffset/>
<feGaussianBlur stdDeviation="40.14"/>
<feColorMatrix type="matrix" values="0 0 0 0 0.0705882 0 0 0 0 0.0509804 0 0 0 0 0.0509804 0 0 0 1 0"/>
<feBlend mode="normal" in2="BackgroundImageFix" result="effect1_dropShadow_160_17"/>
<feColorMatrix in="SourceAlpha" type="matrix" values="0 0 0 0 0 0 0 0 0 0 0 0 0 0 0 0 0 0 127 0" result="hardAlpha"/>
<feOffset/>
<feGaussianBlur stdDeviation="80.28"/>
<feColorMatrix type="matrix" values="0 0 0 0 0.0705882 0 0 0 0 0.0509804 0 0 0 0 0.0509804 0 0 0 1 0"/>
<feBlend mode="normal" in2="effect1_dropShadow_160_17" result="effect2_dropShadow_160_17"/>
<feColorMatrix in="SourceAlpha" type="matrix" values="0 0 0 0 0 0 0 0 0 0 0 0 0 0 0 0 0 0 127 0" result="hardAlpha"/>
<feOffset/>
<feGaussianBlur stdDeviation="280.98"/>
<feColorMatrix type="matrix" values="0 0 0 0 0.0705882 0 0 0 0 0.0509804 0 0 0 0 0.0509804 0 0 0 1 0"/>
<feBlend mode="normal" in2="effect2_dropShadow_160_17" result="effect3_dropShadow_160_17"/>
<feColorMatrix in="SourceAlpha" type="matrix" values="0 0 0 0 0 0 0 0 0 0 0 0 0 0 0 0 0 0 127 0" result="hardAlpha"/>
<feOffset/>
<feGaussianBlur stdDeviation="561.96"/>
<feColorMatrix type="matrix" values="0 0 0 0 0.0705882 0 0 0 0 0.0509804 0 0 0 0 0.0509804 0 0 0 1 0"/>
<feBlend mode="normal" in2="effect3_dropShadow_160_17" result="effect4_dropShadow_160_17"/>
<feColorMatrix in="SourceAlpha" type="matrix" values="0 0 0 0 0 0 0 0 0 0 0 0 0 0 0 0 0 0 127 0" result="hardAlpha"/>
<feOffset/>
<feGaussianBlur stdDeviation="963.36"/>
<feColorMatrix type="matrix" values="0 0 0 0 0.0705882 0 0 0 0 0.0509804 0 0 0 0 0.0509804 0 0 0 1 0"/>
<feBlend mode="normal" in2="effect4_dropShadow_160_17" result="effect5_dropShadow_160_17"/>
<feColorMatrix in="SourceAlpha" type="matrix" values="0 0 0 0 0 0 0 0 0 0 0 0 0 0 0 0 0 0 127 0" result="hardAlpha"/>
<feOffset/>
<feGaussianBlur stdDeviation="1685.88"/>
<feColorMatrix type="matrix" values="0 0 0 0 0.0705882 0 0 0 0 0.0509804 0 0 0 0 0.0509804 0 0 0 1 0"/>
<feBlend mode="normal" in2="effect5_dropShadow_160_17" result="effect6_dropShadow_160_17"/>
<feBlend mode="normal" in="SourceGraphic" in2="effect6_dropShadow_160_17" result="shape"/>
</filter>
<linearGradient id="paint0_linear_160_17" x1="764.329" y1="796.438" x2="1108.89" y2="796.438" gradientUnits="userSpaceOnUse">
<stop stop-color="#B17A22"/>
<stop offset="0.29" stop-color="#D2AF64"/>
<stop offset="0.46" stop-color="#DDC27C"/>
<stop offset="0.58" stop-color="#F8E9AB"/>
<stop offset="0.73" stop-color="#D9BA73"/>
<stop offset="0.84" stop-color="#BE8D3D"/>
<stop offset="1" stop-color="#B27620"/>
</linearGradient>
<linearGradient id="paint1_linear_160_17" x1="764.329" y1="796.438" x2="1108.89" y2="796.438" gradientUnits="userSpaceOnUse">
<stop stop-color="#B17A22"/>
<stop offset="0.29" stop-color="#D2AF64"/>
<stop offset="0.46" stop-color="#DDC27C"/>
<stop offset="0.58" stop-color="#F8E9AB"/>
<stop offset="0.73" stop-color="#D9BA73"/>
<stop offset="0.84" stop-color="#BE8D3D"/>
<stop offset="1" stop-color="#B27620"/>
</linearGradient>
<linearGradient id="paint2_linear_160_17" x1="613" y1="540.984" x2="983.047" y2="540.984" gradientUnits="userSpaceOnUse">
<stop stop-color="#B17A22"/>
<stop offset="0.29" stop-color="#D2AF64"/>
<stop offset="0.46" stop-color="#DDC27C"/>
<stop offset="0.58" stop-color="#F8E9AB"/>
<stop offset="0.73" stop-color="#D9BA73"/>
<stop offset="0.84" stop-color="#BE8D3D"/>
<stop offset="1" stop-color="#B27620"/>
</linearGradient>
<linearGradient id="paint3_linear_160_17" x1="850.244" y1="675.546" x2="966.334" y2="675.546" gradientUnits="userSpaceOnUse">
<stop stop-color="#B17A22"/>
<stop offset="0.29" stop-color="#D2AF64"/>
<stop offset="0.46" stop-color="#DDC27C"/>
<stop offset="0.58" stop-color="#F8E9AB"/>
<stop offset="0.73" stop-color="#D9BA73"/>
<stop offset="0.84" stop-color="#BE8D3D"/>
<stop offset="1" stop-color="#B27620"/>
</linearGradient>
<linearGradient id="paint4_linear_160_17" x1="1119.97" y1="894.271" x2="1235.48" y2="894.271" gradientUnits="userSpaceOnUse">
<stop stop-color="#B17A22"/>
<stop offset="0.29" stop-color="#D2AF64"/>
<stop offset="0.46" stop-color="#DDC27C"/>
<stop offset="0.58" stop-color="#F8E9AB"/>
<stop offset="0.73" stop-color="#D9BA73"/>
<stop offset="0.84" stop-color="#BE8D3D"/>
<stop offset="1" stop-color="#B27620"/>
</linearGradient>
<linearGradient id="paint5_linear_160_17" x1="895.939" y1="1033.61" x2="1282" y2="1033.61" gradientUnits="userSpaceOnUse">
<stop stop-color="#B17A22"/>
<stop offset="0.29" stop-color="#D2AF64"/>
<stop offset="0.46" stop-color="#DDC27C"/>
<stop offset="0.58" stop-color="#F8E9AB"/>
<stop offset="0.73" stop-color="#D9BA73"/>
<stop offset="0.84" stop-color="#BE8D3D"/>
<stop offset="1" stop-color="#B27620"/>
</linearGradient>
<clipPath id="clip0_160_17">
<rect width="669" height="870" fill="white" transform="translate(613 351)"/>
</clipPath>
</defs>
</svg>
