<svg width="108" height="163" viewBox="0 0 108 163" fill="none" xmlns="http://www.w3.org/2000/svg">
<path d="M1.04702 112.331H9.09182C10.2014 112.331 11.185 112.482 12.0172 112.784C12.8494 113.085 13.5303 113.477 14.0347 113.929C14.5643 114.381 14.9426 114.893 15.22 115.466C15.4974 116.038 15.5983 116.581 15.5983 117.123C15.5983 117.756 15.447 118.329 15.1443 118.871C14.8417 119.414 14.4382 119.896 13.9338 120.318C13.4295 120.74 12.8494 121.071 12.1937 121.343C11.538 121.614 10.8319 121.734 10.0754 121.734V121.855C10.5545 121.855 11.1598 121.945 11.9415 122.066C12.7233 122.186 13.4547 122.427 14.186 122.759C14.9174 123.121 15.5478 123.603 16.0774 124.266C16.607 124.929 16.8844 125.803 16.8844 126.918C16.8844 127.611 16.7583 128.304 16.4809 128.997C16.2035 129.691 15.7748 130.293 15.1696 130.836C14.5643 131.378 13.7825 131.83 12.7738 132.162C11.7902 132.493 10.5797 132.674 9.11703 132.674H1.0218V112.362L1.04702 112.331ZM7.83088 121.222C8.48657 121.222 9.0666 121.132 9.64664 120.921C10.2267 120.71 10.7058 120.469 11.1598 120.107C11.5885 119.745 11.9415 119.353 12.1937 118.871C12.4459 118.389 12.572 117.877 12.572 117.304C12.572 116.852 12.4964 116.43 12.3198 115.978C12.1433 115.526 11.8659 115.134 11.4876 114.803C11.1093 114.441 10.6302 114.17 10.0501 113.959C9.47011 113.748 8.73875 113.627 7.90653 113.627H3.99762V121.222H7.85609H7.83088ZM1.04702 131.438C1.19833 131.438 1.37486 131.438 1.52617 131.438C6.09078 131.378 8.05785 131.378 8.63788 131.378C8.63788 131.378 8.71354 131.378 8.7892 131.378C9.14226 131.378 9.79795 131.348 10.5797 131.107C11.185 130.926 11.7146 130.655 12.1685 130.293C12.6225 129.932 12.9755 129.48 13.2529 128.967C13.5303 128.455 13.6564 127.852 13.6564 127.159C13.6564 126.526 13.5303 125.954 13.2781 125.381C13.026 124.808 12.6477 124.326 12.1433 123.904C11.6389 123.482 11.0085 123.151 10.2267 122.88C9.44489 122.638 8.53701 122.488 7.47782 122.488H3.92196C3.84631 124.899 3.77065 127.31 3.69499 129.721C2.78712 129.721 1.87924 129.721 0.996582 129.721" fill="white"/>
<path d="M22.2812 132.644V112.331H25.2066V131.047H36.8073V132.644H22.2812Z" fill="white"/>
<path d="M43.0614 126.677L40.2369 132.644H38.749L48.2565 112.331H49.8705L60.3363 132.644H57.2092L54.1325 126.677H43.0362H43.0614ZM48.4331 115.586H48.307C46.5669 119.293 44.8268 122.97 43.0614 126.677C43.7171 126.677 44.398 126.677 45.0537 126.677V125.411C45.0537 125.411 47.4243 125.411 47.4495 125.411C47.5252 125.411 53.4012 125.411 53.4768 125.411C51.7872 122.156 50.1227 118.901 48.4331 115.647V115.586Z" fill="white"/>
<path d="M85.0511 129.691C84.7737 129.992 84.3702 130.323 83.8406 130.715C83.311 131.107 82.6301 131.469 81.8231 131.8C81.0161 132.132 80.083 132.433 78.9986 132.644C77.9142 132.855 76.6785 133.006 75.3167 133.006C73.1479 133.006 71.2817 132.704 69.7181 132.102C68.1545 131.499 66.8684 130.685 65.8596 129.691C64.8509 128.696 64.1195 127.551 63.6151 126.255C63.136 124.959 62.8838 123.663 62.8838 122.307C62.8838 120.74 63.1864 119.323 63.7917 118.058C64.3969 116.792 65.2291 115.707 66.3388 114.803C67.4232 113.899 68.7346 113.205 70.2729 112.723C71.8113 112.241 73.5009 112 75.3671 112C76.6533 112 77.7881 112.121 78.7969 112.362C79.8056 112.603 80.6883 112.904 81.4449 113.326C82.2014 113.718 82.8319 114.23 83.3363 114.773C83.8406 115.315 84.2441 115.948 84.572 116.611H82.2014C82.0501 116.219 81.7979 115.797 81.4196 115.406C81.0413 115.014 80.5622 114.652 79.9822 114.351C79.4021 114.049 78.7212 113.778 77.9646 113.597C77.2081 113.416 76.3506 113.296 75.4428 113.296C74.081 113.296 72.8452 113.507 71.7104 113.959C70.5755 114.411 69.5668 115.014 68.7346 115.827C67.9023 116.611 67.2467 117.575 66.7927 118.66C66.3388 119.745 66.1118 120.951 66.1118 122.277C66.1118 123.512 66.3388 124.718 66.7675 125.833C67.1962 126.978 67.8519 127.973 68.7093 128.847C69.5668 129.721 70.626 130.414 71.9121 130.926C73.1983 131.439 74.6862 131.71 76.3506 131.71C79.3517 131.71 81.9492 130.776 84.118 128.937L85.0763 129.721L85.0511 129.691Z" fill="white"/>
<path d="M89.5652 112.331H92.4906V123.754C94.9873 122.217 97.9379 120.077 100.939 117.003C102.477 115.405 103.814 113.838 104.949 112.331H106.134C104.419 114.471 102.528 116.641 100.384 118.811C99.7032 119.504 99.0475 120.167 98.3666 120.8C99.8798 121.855 101.796 123.482 103.738 125.803C105.781 128.274 107.118 130.745 108 132.644H104.646C104.016 131.167 103.083 129.299 101.67 127.43C99.7537 124.838 97.7362 123.241 96.2987 122.277C95.0377 123.241 93.7768 124.175 92.5159 125.14C92.5159 127.641 92.4906 130.143 92.4654 132.674H89.54V112.362L89.5652 112.331Z" fill="white"/>
<path d="M36.5296 162.97V144.255H27.9048V142.657H48.0546V144.255H39.455V162.97H36.5296Z" fill="white"/>
<path d="M56.7804 142.687V163H53.855V142.687H56.7804Z" fill="white"/>
<path d="M80.3097 142.687V144.285H68.7091V152.904H70.1213V151.608C72.9711 151.608 75.8208 151.608 78.6705 151.578V152.904H68.7091V161.402H80.3097V163H65.7837V142.687H80.3097Z" fill="white"/>
<path d="M52.8763 104.031C81.6174 104.031 104.917 80.9296 104.917 52.433C104.917 23.9364 81.6174 0.835297 52.8763 0.835297C24.1352 0.835297 0.835938 23.9364 0.835938 52.433C0.835938 80.9296 24.1352 104.031 52.8763 104.031Z" fill="white"/>
<mask id="mask0_201_56" style="mask-type:luminance" maskUnits="userSpaceOnUse" x="0" y="0" width="106" height="106">
<path d="M52.8763 105.677C82.079 105.677 105.753 82.0207 105.753 52.8387C105.753 23.6567 82.079 0 52.8763 0C23.6735 0 0 23.6567 0 52.8387C0 82.0207 23.6735 105.677 52.8763 105.677Z" fill="white"/>
</mask>
<g mask="url(#mask0_201_56)">
<path d="M17.3386 90.8806H18.6283C18.1268 89.5203 17.8163 88.2077 17.1953 87.0382C15.2131 83.3629 13.2308 79.6637 11.0097 76.1078C10.0305 74.5088 10.4843 73.6973 11.8695 72.7666C15.1175 70.5948 18.3178 68.3753 21.5181 66.1558C22.1391 65.7262 22.7361 65.3204 23.8347 64.5806C19.6314 61.3826 15.6191 58.3278 11.5351 55.2253C14.2339 49.76 16.646 44.1754 19.7269 38.925C21.1599 36.4907 23.8825 34.7485 26.2946 32.4096C27.656 40.6194 28.8501 48.3519 30.283 56.0367C31.716 63.793 33.5789 71.4539 34.8208 79.2342C36.0627 86.9666 39.0241 94.4128 39.5256 102.813C37.0657 101.883 35.1551 101.214 33.2923 100.451C28.7546 98.6131 24.2168 96.7755 20.4673 93.649C19.3925 92.766 18.4134 91.7875 17.3864 90.8568L17.3386 90.9045V90.8806Z" fill="black"/>
<path d="M79.2187 32.1471C81.9174 34.5337 85.0938 35.9417 86.5268 38.7818C89.2972 44.247 91.8049 49.8316 94.4558 55.44C90.3241 58.4948 86.2163 61.5497 81.8219 64.7954C86.694 68.1127 91.1839 71.1437 95.5544 74.103C93.8349 77.0146 92.187 79.5921 90.7779 82.2651C89.7032 84.2937 88.8673 86.4416 88.0075 88.5418C87.8165 89.0191 87.7448 89.6635 87.9836 90.093C88.8912 91.7636 88.0314 92.7421 86.6701 93.7684C80.9621 98.0165 74.4183 100.833 67.4684 102.981C67.2535 103.052 66.9669 103.004 66.4653 103.052C70.0716 79.4728 76.4722 56.3947 79.2426 32.1232L79.2187 32.1471Z" fill="black"/>
<path d="M29.1128 5.29819C30.2591 11.1453 30.5457 17.0401 30.1875 22.9349C29.9487 26.7057 27.847 29.7605 25.0527 32.1948C22.3301 34.5575 19.488 36.8248 16.5027 38.8534C11.5351 42.1946 6.40033 45.2733 1.3372 48.4474C0.716251 48.8292 0.0475352 49.1395 -0.668945 49.5213C0.286362 28.0661 16.6938 10.835 29.1366 5.32205L29.1128 5.29819Z" fill="black"/>
<path d="M105.848 49.4975C103.269 47.803 100.785 46.3233 98.4684 44.6766C92.856 40.6672 87.2435 36.6816 81.7744 32.5051C77.9293 29.5696 76.0187 25.4408 75.9948 20.6438C75.9709 15.5604 76.3291 10.5009 76.5441 4.86859C83.7328 8.87803 89.5602 13.5796 94.3367 19.5221C101.31 28.1854 105.705 37.8749 105.848 49.4975Z" fill="black"/>
<path d="M56.1242 26.0852C56.2436 25.3692 56.363 24.7965 56.4108 24.2237C56.6735 21.4791 55.6943 20.2142 52.9239 19.6415C52.3746 19.5221 51.8253 19.4267 51.276 19.2835C50.5118 19.1164 50.1535 19.0448 49.7714 18.7346C49.5803 18.5675 49.1743 18.2334 49.1982 17.7799C49.1982 17.3265 49.652 16.9208 50.2729 16.7537C51.3238 16.8253 52.6373 16.8253 54.118 16.6105C55.6704 16.3957 56.9601 15.99 57.9393 15.632C58.5363 15.2263 58.7274 14.6297 58.5363 14.2717C58.5125 14.2239 58.393 14.033 58.0587 13.9376C48.0996 13.675 43.4664 13.5557 43.4664 13.5557C43.4664 13.5557 42.9409 13.5318 42.6543 13.2932C42.4155 13.1023 42.2961 12.7681 42.3439 12.4579C42.4394 12.0044 42.9171 11.6464 43.5141 11.6942L54.8584 11.6464C55.0495 11.4078 55.2883 11.0498 55.3122 10.5964C55.3361 10.2384 55.2644 9.71333 54.1658 8.47231C53.6165 7.82794 53.2105 7.32676 52.4701 6.80171C51.2521 5.96641 49.8908 5.32204 48.7444 4.41514C48.7205 4.39127 48.5056 4.20035 48.2668 3.91396C48.1474 3.77076 47.1682 2.62521 47.5025 2.0763C47.6219 1.86151 47.8847 1.81378 48.0757 1.78991C48.9594 1.62285 49.5087 2.21949 50.4879 2.60135C50.8222 2.72067 52.4462 3.36505 53.306 2.69681C53.8314 2.31496 54.0225 1.47966 54.0225 0.190908C54.0225 -0.453466 54.0225 -1.09784 54.0225 -1.83768C61.1873 -1.64675 67.8506 0.143177 74.3228 2.69681C75.1587 3.03093 75.4453 3.38891 75.4214 4.41514C75.2303 10.4532 72.5555 15.1786 67.8745 19.0926C64.5787 21.861 61.5217 24.8919 57.0317 25.8465C56.7451 25.9181 56.4585 25.942 56.0525 26.0375L56.1242 26.0852Z" fill="black"/>
<path d="M88.0078 91.2386C90.9693 85.3676 93.9068 79.4967 97.0355 73.2677C93.2142 70.38 89.3453 67.4206 85.3091 64.3897C89.0109 61.3826 92.5455 58.5187 95.9369 55.7741C94.1696 50.9533 92.45 46.2279 90.6349 41.2877C95.8891 44.6766 100.857 47.8507 105.8 51.0965C106.111 51.2874 106.302 51.9318 106.278 52.3375C105.418 66.2989 101.358 78.9239 91.2798 89.0191C90.3244 89.9737 89.1542 90.6897 88.0795 91.525C88.0556 91.4295 88.0078 91.3579 87.9839 91.2625L88.0078 91.2386Z" fill="black"/>
<path d="M18.7239 91.7636C16.7416 90.4033 14.4728 89.3055 12.801 87.611C4.89582 79.5205 0.381989 69.7833 -0.716614 58.4948C-0.716614 58.3755 -0.716615 58.2562 -0.740498 58.1369C-0.859911 56.0605 -1.6958 53.6501 -0.907676 52.0272C-0.167313 50.476 2.26872 49.6884 3.96439 48.6144C7.52291 46.3711 11.1292 44.1277 14.7116 41.9082C14.8549 42.0036 14.9982 42.0752 15.1415 42.1707C13.8518 45.0107 12.586 47.8507 11.2964 50.6908C10.6993 52.0511 10.1261 53.4353 9.50518 54.7718C8.90811 56.0605 9.21858 56.872 10.4127 57.7311C13.4697 59.9029 16.4073 62.2418 19.6075 64.6761C17.1954 66.4899 14.9027 68.1605 12.6816 69.9026C11.2247 71.0243 9.0514 72.0506 8.6454 73.5064C8.26328 74.9144 9.52906 76.943 10.4366 78.4943C13.0876 83.0049 15.9296 87.3962 18.6761 91.8352L18.7 91.7875L18.7239 91.7636Z" fill="black"/>
<path d="M34.0328 21.7655C33.6984 23.2691 33.4357 24.4623 33.173 25.6556H32.5998C31.5729 22.0519 32.2655 18.305 31.6445 14.1762C32.4088 14.8206 32.8148 15.1547 33.2208 15.5127C37.1614 18.9016 40.9349 22.5531 45.0905 25.6079C50.2253 29.3787 55.981 29.3548 61.1874 26.0375C66.7521 22.4815 70.7405 18.8778 72.7466 16.4912C73.6542 15.3934 74.3468 14.4626 74.8244 13.8182C74.5617 16.6821 74.5856 18.9732 74.6811 20.5484C74.7528 22.028 74.9916 25.0113 74.9916 25.0113C74.9916 25.0113 72.0779 27.4217 71.7913 27.6365C64.4355 33.6984 59.8022 35.7747 54.9301 38.925C54.1659 39.4261 52.5896 39.45 51.8493 38.9488C49.6521 37.5169 47.5026 35.8702 45.6398 34.0086C42.2246 30.572 39.0482 26.8728 35.7762 23.2929C35.3225 22.7917 34.7732 22.386 34.0806 21.7417L34.0328 21.7655Z" fill="black"/>
<path d="M63.5038 48.5906C62.1186 50.7147 60.829 52.5762 59.6348 54.4854C56.9839 58.7335 49.222 59.354 46.2605 54.2945C45.1858 52.4569 43.92 50.7147 42.6304 48.7815C45.4963 46.0608 48.5055 43.6027 52.1596 42.2423C53.1149 41.8843 54.6672 42.4333 55.6226 43.0538C58.2974 44.7244 60.8051 46.6575 63.5038 48.5906Z" fill="black"/>
<path d="M72.1019 59.2347C69.6897 55.7742 63.4564 55.1537 63.743 49.1156C66.8238 50.9056 69.4748 52.4568 72.1258 54.0081C72.293 53.8649 72.4601 53.7217 72.6273 53.6024C72.5079 53.1489 72.5557 52.5762 72.2691 52.242C70.4062 49.9748 70.8361 47.445 71.1944 44.9391C71.5287 42.6242 72.1019 40.3331 72.4601 38.0181C72.6751 36.5384 72.4601 35.3451 70.1674 35.3451C68.9016 35.3451 67.6358 34.8201 65.7969 34.3905C69.1404 32.0039 72.484 29.5935 75.8037 27.2069C77.1889 30.1424 77.4277 30.6674 77.4277 30.6674C77.4277 30.6674 76.4247 38.5193 75.6365 43.2924C75.0156 47.1586 73.9647 52.6239 72.078 59.2586L72.1019 59.2347Z" fill="black"/>
<path d="M35.1792 58.996C34.6061 56.9913 34.1284 55.2968 33.5791 53.4592C36.851 53.9126 38.4273 51.0487 41.3887 50.0941C41.2454 51.0487 41.3887 51.9079 41.0066 52.3852C39.2393 54.5331 37.3526 56.5617 35.1792 58.996Z" fill="black"/>
<path d="M47.9563 59.6643H60.0409C60.9246 67.3729 61.9516 74.8667 62.6203 82.4083C63.6234 93.8638 64.3876 105.343 65.2713 116.799C65.6773 122.121 66.1549 127.419 66.4176 132.741C66.4654 133.529 65.6773 134.626 64.9608 135.104C61.9993 137.132 58.9662 139.113 55.8376 140.855C55.0972 141.261 53.6882 141.022 52.8761 140.545C49.6281 138.66 46.4517 136.631 43.347 134.507C42.7499 134.101 42.1767 133.051 42.2245 132.335C43.4425 114.866 44.7083 97.4198 46.0457 79.974C46.5711 73.2439 47.2876 66.5137 47.9563 59.6404V59.6643Z" fill="black"/>
</g>
</svg>
