<svg width="40" height="40" viewBox="0 0 40 40" fill="none" xmlns="http://www.w3.org/2000/svg">
<g clip-path="url(#clip0_201_50)">
<g filter="url(#filter0_d_201_50)">
<path d="M29.4415 28.4516C34.9344 23.0143 34.9344 14.1986 29.4415 8.7612C23.9487 3.32384 15.043 3.32384 9.55017 8.7612C4.05732 14.1986 4.05732 23.0143 9.55017 28.4516C15.043 33.889 23.9487 33.889 29.4415 28.4516Z" fill="#1D262D"/>
<path fill-rule="evenodd" clip-rule="evenodd" d="M27.1844 22.2303C26.7599 22 24.662 20.8808 24.2701 20.7232C23.8783 20.5657 23.5885 20.4848 23.2824 20.901C22.9762 21.3212 22.1069 22.2586 21.8456 22.5333C21.5803 22.8121 21.3273 22.8364 20.8987 22.6061C20.4742 22.3758 19.0905 21.8667 17.4865 20.3434C16.2375 19.1556 15.4211 17.7172 15.1844 17.2768C14.9477 16.8364 15.1844 16.6141 15.4089 16.4081C15.613 16.2222 15.862 15.9192 16.0905 15.6768C16.315 15.4343 16.3967 15.2566 16.5518 14.9778C16.7069 14.6949 16.6456 14.4444 16.5436 14.2222C16.4416 14.004 15.6538 11.8545 15.3273 10.9818C14.9967 10.1091 14.6293 10.2384 14.3762 10.2263C14.1232 10.2182 13.8334 10.1697 13.5436 10.1616C13.2538 10.1495 12.7762 10.2424 12.364 10.6545C11.9477 11.0707 10.7885 12.0687 10.7069 14.1859C10.6252 16.303 12.1069 18.404 12.3109 18.699C12.5191 18.9939 15.1354 23.5798 19.4865 25.4667C23.8375 27.3535 23.862 26.7798 24.6579 26.7354C25.4579 26.6949 27.266 25.7899 27.6701 24.8C28.0701 23.8101 28.1028 22.9495 28.0007 22.7636C27.8987 22.5818 27.613 22.4606 27.1885 22.2303H27.1844ZM19.2007 1.55151C9.80482 1.55151 2.18441 9.09495 2.18441 18.4C2.18441 21.5838 3.07829 24.5616 4.62523 27.099L1.55176 36.1374L10.9762 33.1515C13.413 34.4848 16.2171 35.2485 19.2007 35.2485C28.6007 35.2485 36.2211 27.705 36.2211 18.4C36.2211 9.09495 28.6048 1.55151 19.2007 1.55151Z" fill="white"/>
</g>
</g>
<defs>
<filter id="filter0_d_201_50" x="0.551758" y="0.551514" width="42.6689" height="42.5859" filterUnits="userSpaceOnUse" color-interpolation-filters="sRGB">
<feFlood flood-opacity="0" result="BackgroundImageFix"/>
<feColorMatrix in="SourceAlpha" type="matrix" values="0 0 0 0 0 0 0 0 0 0 0 0 0 0 0 0 0 0 127 0" result="hardAlpha"/>
<feOffset dx="3" dy="3"/>
<feGaussianBlur stdDeviation="2"/>
<feColorMatrix type="matrix" values="0 0 0 0 0 0 0 0 0 0 0 0 0 0 0 0 0 0 0.1 0"/>
<feBlend mode="normal" in2="BackgroundImageFix" result="effect1_dropShadow_201_50"/>
<feBlend mode="normal" in="SourceGraphic" in2="effect1_dropShadow_201_50" result="shape"/>
</filter>
<clipPath id="clip0_201_50">
<rect width="40" height="40" fill="white"/>
</clipPath>
</defs>
</svg>
