<?xml version="1.0" standalone="no"?>
<!DOCTYPE svg PUBLIC "-//W3C//DTD SVG 20010904//EN"
 "http://www.w3.org/TR/2001/REC-SVG-20010904/DTD/svg10.dtd">
<svg version="1.0" xmlns="http://www.w3.org/2000/svg"
 width="688.000000pt" height="688.000000pt" viewBox="0 0 688.000000 688.000000"
 preserveAspectRatio="xMidYMid meet">
<metadata>
Created by potrace 1.14, written by Peter Selinger 2001-2017
</metadata>
<g transform="translate(0.000000,688.000000) scale(0.100000,-0.100000)"
fill="#000000" stroke="none">
<path d="M2229 6876 c-2 -2 -30 -7 -62 -10 -66 -8 -205 -34 -216 -41 -4 -2
-23 -7 -42 -10 -42 -7 -237 -79 -304 -112 -49 -25 -215 -122 -225 -133 -3 -3
-36 -31 -75 -62 -38 -31 -98 -87 -133 -125 -34 -37 -68 -75 -76 -83 -36 -39
-132 -194 -170 -275 -61 -127 -83 -187 -107 -290 -36 -155 -43 -217 -43 -390
0 -172 14 -286 50 -415 9 -30 18 -67 21 -83 3 -15 9 -30 14 -33 5 -3 9 -12 9
-19 0 -25 88 -199 141 -282 193 -296 483 -506 859 -622 14 -4 30 -6 35 -4 6 2
9 49 7 118 l-3 114 -62 32 c-67 33 -183 108 -232 148 -16 14 -73 68 -125 121
-216 215 -353 502 -386 805 -13 117 -5 429 11 455 2 3 6 26 10 50 17 123 98
335 179 472 109 185 281 363 436 452 77 44 230 114 237 109 2 -1 22 5 45 13
24 8 54 17 68 18 14 2 50 8 80 12 62 9 232 10 300 1 51 -7 116 -20 160 -32 3
-1 19 -5 35 -10 101 -27 294 -118 410 -192 156 -101 315 -239 418 -363 20 -25
41 -50 46 -57 6 -6 25 -35 43 -65 18 -29 39 -62 46 -73 12 -20 15 -27 34 -78
6 -15 13 -25 16 -23 2 3 6 69 8 148 2 79 6 187 8 240 l4 98 -56 49 c-56 49
-82 71 -119 101 -80 66 -264 166 -393 213 -99 37 -260 80 -345 92 -27 4 -61
10 -75 13 -30 5 -476 13 -481 8z"/>
<path d="M1970 4915 c-6 -7 9 -19 40 -34 26 -13 58 -33 69 -45 52 -55 50 -1
51 -1468 0 -1518 4 -1436 -66 -1497 -20 -18 -49 -34 -65 -38 -36 -7 -39 -33
-4 -34 14 0 144 0 290 0 356 0 330 -2 316 15 -6 8 -26 20 -44 27 -47 19 -94
75 -103 123 -4 22 -8 420 -9 884 l-1 842 26 1 c14 1 34 2 45 3 11 0 31 -9 45
-22 69 -64 198 -116 345 -139 72 -11 111 -13 295 -18 252 -7 353 -14 430 -31
14 -4 38 -8 55 -11 75 -12 260 -98 320 -148 64 -54 127 -120 169 -179 l43 -61
0 -533 c0 -307 -4 -554 -10 -583 -7 -37 -20 -59 -50 -89 -21 -22 -47 -40 -56
-40 -9 0 -24 -7 -34 -14 -13 -10 -14 -15 -5 -22 10 -7 495 -11 611 -5 33 2 16
26 -36 51 -43 21 -57 34 -77 75 l-25 50 -1 1371 c-1 1060 2 1381 11 1419 15
55 69 112 117 122 31 6 39 32 11 34 -118 6 -606 0 -614 -8 -6 -6 4 -16 31 -28
66 -30 102 -69 117 -128 6 -23 11 -1527 6 -1527 -2 0 -33 29 -69 65 -107 106
-246 190 -388 234 -134 41 -192 48 -406 50 -270 2 -414 9 -445 21 -15 6 -30 9
-32 6 -8 -7 -116 35 -178 69 -77 43 -143 101 -203 179 l-47 61 1 420 c0 411 1
421 22 462 23 43 55 71 110 93 24 9 30 16 22 24 -14 14 -618 15 -630 1z"/>
<path d="M3488 4687 c-31 -28 -69 -77 -85 -107 -15 -30 -31 -56 -35 -58 -5 -2
-8 -10 -8 -17 0 -7 -3 -15 -7 -17 -5 -1 -21 -23 -38 -47 -44 -65 -159 -181
-244 -245 -89 -68 -227 -137 -336 -168 -44 -12 -82 -23 -84 -25 -5 -4 -2 -116
4 -121 7 -7 138 40 231 83 90 42 194 103 221 131 8 8 19 14 24 14 28 0 289
287 289 319 0 5 4 11 8 13 17 7 132 263 132 295 0 11 -22 -4 -72 -50z"/>
<path d="M4782 3006 l3 -67 70 -32 c82 -37 258 -137 263 -149 2 -4 10 -8 18
-8 8 0 14 -3 14 -7 0 -5 17 -19 37 -33 57 -38 89 -66 193 -170 143 -143 184
-198 255 -337 l45 -88 -1 50 c-1 28 2 140 5 250 l7 200 -53 51 c-84 79 -243
189 -353 243 -96 48 -215 96 -259 106 -11 2 -52 13 -91 23 -38 11 -89 23 -113
27 l-43 7 3 -66z"/>
<path d="M4000 2963 c-26 -10 -102 -44 -175 -79 -421 -201 -733 -632 -800
-1103 -25 -172 -19 -416 11 -551 3 -14 8 -36 10 -50 3 -14 15 -56 26 -95 12
-38 22 -72 23 -75 4 -21 46 -118 78 -179 145 -278 362 -491 652 -640 69 -35
187 -84 235 -97 120 -33 214 -56 255 -60 27 -4 53 -8 56 -10 4 -2 49 -7 100
-11 244 -17 463 -1 644 47 123 33 150 42 160 51 5 5 15 9 23 9 15 0 148 64
211 101 195 116 385 323 473 519 33 72 38 86 58 143 21 64 21 64 -57 2 -31
-24 -58 -58 -71 -85 -63 -136 -207 -307 -348 -413 -84 -63 -201 -128 -254
-142 -3 0 -28 -9 -56 -18 -28 -10 -61 -19 -73 -22 -12 -2 -30 -6 -39 -9 -16
-5 -38 -9 -147 -23 -96 -13 -344 -6 -440 12 -115 21 -273 65 -335 92 -102 45
-190 89 -228 114 -24 16 -47 29 -52 29 -4 0 -10 3 -12 8 -1 4 -30 27 -63 52
-72 53 -188 169 -250 250 -51 66 -145 220 -145 237 0 6 -3 13 -7 15 -10 4 -45
91 -73 178 -25 82 -24 75 -55 275 -7 46 -7 266 0 340 11 117 73 376 94 395 4
3 7 13 9 23 4 21 104 218 134 261 35 51 151 191 192 230 59 56 177 146 224
170 30 15 32 20 32 66 0 28 -1 50 -2 49 -2 0 -10 -3 -18 -6z"/>
</g>
</svg>
